<svg width="24" height="24" viewBox="0 0 24 24" fill="none" xmlns="http://www.w3.org/2000/svg">
<path d="M10.2314 6.035C10.2314 4 10.3734 4 12.0004 4C13.6274 4 13.7684 4 13.7684 6.035" stroke="#313D56" stroke-width="2" stroke-linecap="round" stroke-linejoin="round"/>
<path d="M10.2314 17.9648C10.2314 19.9998 10.3734 19.9998 12.0004 19.9998C13.6274 19.9998 13.7684 19.9998 13.7684 17.9648" stroke="#313D56" stroke-width="2" stroke-linecap="round" stroke-linejoin="round"/>
<path d="M17.9648 10.2314C19.9998 10.2314 19.9998 10.3734 19.9998 12.0004C19.9998 13.6274 19.9998 13.7684 17.9648 13.7684" stroke="#313D56" stroke-width="2" stroke-linecap="round" stroke-linejoin="round"/>
<path d="M6.035 13.7684C4 13.7684 4 13.6264 4 11.9994C4 10.3724 4 10.2314 6.035 10.2314" stroke="#313D56" stroke-width="2" stroke-linecap="round" stroke-linejoin="round"/>
<path d="M14.9688 6.52431C16.4088 5.09331 16.5067 5.19131 17.6537 6.34631C18.8087 7.49331 18.9067 7.59031 17.4757 9.03131" stroke="#313D56" stroke-width="2" stroke-linecap="round" stroke-linejoin="round"/>
<path d="M6.5248 14.9688C5.0938 16.4088 5.1918 16.5067 6.3468 17.6537C7.4938 18.8087 7.5908 18.9067 9.0318 17.4757" stroke="#313D56" stroke-width="2" stroke-linecap="round" stroke-linejoin="round"/>
<path d="M17.4757 14.9688C18.9067 16.4088 18.8088 16.5067 17.6538 17.6537C16.5068 18.8087 16.4097 18.9067 14.9688 17.4757" stroke="#313D56" stroke-width="2" stroke-linecap="round" stroke-linejoin="round"/>
<path d="M6.5248 9.03131C5.0938 7.59131 5.1918 7.49331 6.3468 6.34631C7.4938 5.19131 7.5908 5.09331 9.0318 6.52431" stroke="#313D56" stroke-width="2" stroke-linecap="round" stroke-linejoin="round"/>
<path d="M6.52416 9.03125C6.32016 9.41325 6.15116 9.81325 6.03516 10.2313" stroke="#313D56" stroke-width="2" stroke-linecap="round" stroke-linejoin="round"/>
<path d="M6.52416 14.969C6.32016 14.587 6.15116 14.187 6.03516 13.769" stroke="#313D56" stroke-width="2" stroke-linecap="round" stroke-linejoin="round"/>
<path d="M14.9686 17.4756C14.5866 17.6796 14.1866 17.8486 13.7686 17.9646" stroke="#313D56" stroke-width="2" stroke-linecap="round" stroke-linejoin="round"/>
<path d="M17.9646 10.2312C17.8486 9.81325 17.6796 9.41325 17.4756 9.03125" stroke="#313D56" stroke-width="2" stroke-linecap="round" stroke-linejoin="round"/>
<path d="M14.9686 6.52416C14.5866 6.32016 14.1866 6.15116 13.7686 6.03516" stroke="#313D56" stroke-width="2" stroke-linecap="round" stroke-linejoin="round"/>
<path d="M17.9646 13.7686C17.8486 14.1866 17.6796 14.5866 17.4756 14.9686" stroke="#313D56" stroke-width="2" stroke-linecap="round" stroke-linejoin="round"/>
<path d="M10.2312 17.9646C9.81325 17.8486 9.41325 17.6796 9.03125 17.4756" stroke="#313D56" stroke-width="2" stroke-linecap="round" stroke-linejoin="round"/>
<path d="M10.2312 6.03516C9.81325 6.15116 9.41325 6.32016 9.03125 6.52416" stroke="#313D56" stroke-width="2" stroke-linecap="round" stroke-linejoin="round"/>
<path fill-rule="evenodd" clip-rule="evenodd" d="M15 12C15 13.657 13.657 15 12 15C10.343 15 9 13.657 9 12C9 10.343 10.343 9 12 9C13.657 9 15 10.343 15 12Z" stroke="#313D56" stroke-width="2" stroke-linecap="round" stroke-linejoin="round"/>
</svg>
