<svg width="104" height="104" viewBox="0 0 104 104" fill="none" xmlns="http://www.w3.org/2000/svg">
<defs>
<linearGradient id="paint0_linear" x1="0" y1="0" x2="103.999" y2="104" gradientUnits="userSpaceOnUse">
<stop stop-color="#F96289"/>
<stop offset="1" stop-color="#3F5EFB"/>
</linearGradient>
<linearGradient id="paint1_linear" x1="58.375" y1="50.7979" x2="86.6223" y2="76.0806" gradientUnits="userSpaceOnUse">
<stop stop-color="#F96289"/>
<stop offset="1" stop-color="#3F5EFB"/>
</linearGradient>
<linearGradient id="paint2_linear" x1="9.22266" y1="9.22168" x2="13.2852" y2="13.2842" gradientUnits="userSpaceOnUse">
<stop stop-color="#F96289"/>
<stop offset="1" stop-color="#3F5EFB"/>
</linearGradient>
<linearGradient id="paint3_linear" x1="20.3398" y1="17.3457" x2="52.0227" y2="43.1629" gradientUnits="userSpaceOnUse">
<stop stop-color="#F96289"/>
<stop offset="1" stop-color="#3F5EFB"/>
</linearGradient>
<clipPath id="clip0">
<rect width="104" height="104" fill="white"/>
</clipPath>
</defs>
<g clip-path="url(#clip0)">
<path d="M95.4688 36.5625H66.9003C66.9908 35.5604 67.04 34.5455 67.04 33.5196C67.04 15.0368 52.0024 0 33.5196 0C27.6321 0 21.8407 1.54883 16.7713 4.47827C15.8001 5.03925 15.4677 6.2818 16.0286 7.25299C16.5904 8.22498 17.8329 8.55664 18.8041 7.99567C23.2562 5.42249 28.3447 4.0625 33.5196 4.0625C49.7625 4.0625 62.9775 17.2767 62.9775 33.5196C62.9775 49.7625 49.7625 62.9775 33.5196 62.9775C26.7205 62.9775 20.3331 60.7249 15.0479 56.464C14.5179 56.0371 13.8157 55.9094 13.1761 56.1053L7.78461 57.5153L9.89679 52.8736C10.2007 52.2071 10.1213 51.4295 9.69049 50.8368C6.00885 45.7801 4.0625 39.7919 4.0625 33.5196C4.0625 28.3312 5.42963 23.23 8.0163 18.7684C8.57886 17.7972 8.24799 16.5547 7.27759 15.9921C6.30719 15.4296 5.06464 15.7596 4.50128 16.7308C1.55676 21.8105 0 27.6163 0 33.5196C0 40.2552 1.97333 46.7053 5.71844 52.2476L2.31769 59.7195C1.99237 60.4329 2.10742 61.2692 2.61206 61.869C3.1167 62.4689 3.92126 62.7244 4.67981 62.526L13.3182 60.2678C19.1088 64.6422 26.2412 67.04 33.5196 67.04C35.1041 67.04 36.6617 66.9265 38.1875 66.7131V84.5C38.1875 89.2036 42.0143 93.0312 46.718 93.0312H75.4467L88.2919 103.541C88.6617 103.844 89.1179 103.999 89.5781 103.999C89.8741 103.999 90.1708 103.935 90.4478 103.804C91.1571 103.468 91.6094 102.753 91.6094 101.968V93.0312H95.4688C100.173 93.0312 104 89.2036 104 84.5V45.0938C104 40.3893 100.173 36.5625 95.4688 36.5625ZM99.9375 84.5C99.9375 86.9637 97.9332 88.9688 95.4688 88.9688H89.5781C88.4562 88.9688 87.5469 89.8781 87.5469 91V97.6817L77.5144 89.4734C76.9614 88.9688 76.4774 88.9688 75.3895 88.9688H46.718C44.2543 88.9688 42.25 86.9637 42.25 84.5V65.8839C54.2653 62.6395 63.6265 52.8688 66.2791 40.625H95.4688C97.9332 40.625 99.9375 42.6293 99.9375 45.0938V84.5Z" fill="url(#paint0_linear)"/>
<path d="M81.2014 70.8104C81.8902 70.4859 82.3678 69.7869 82.3678 68.9744C82.3678 67.8532 81.4585 66.9431 80.3366 66.9431H79.505L72.9543 52.0134C72.6297 51.2747 71.8997 50.7979 71.0936 50.7979C70.2874 50.7979 69.5575 51.2747 69.2337 52.0134L62.683 66.9431H61.8514C60.7295 66.9431 59.8202 67.8532 59.8202 68.9744C59.8202 69.7869 60.2978 70.4859 60.9865 70.8104L58.5467 76.371C58.096 77.3985 58.5633 78.5966 59.5901 79.0473C60.6176 79.498 61.8157 79.0307 62.2664 78.0031L65.3371 71.0056H76.8509L79.9216 78.0031C80.2556 78.7649 81.0007 79.2187 81.783 79.2187C82.0552 79.2187 82.3321 79.164 82.5979 79.0473C83.6247 78.5966 84.0928 77.3985 83.6413 76.371L81.2014 70.8104ZM67.1192 66.9431L71.0936 57.885L75.068 66.9431H67.1192Z" fill="url(#paint1_linear)"/>
<path d="M11.2539 13.2842C11.7879 13.2842 12.3116 13.0668 12.6901 12.6891C13.0678 12.3114 13.2852 11.7877 13.2852 11.2529C13.2852 10.7189 13.0678 10.1953 12.6901 9.81677C12.3116 9.43909 11.7879 9.22168 11.2539 9.22168C10.7175 9.22168 10.1954 9.43909 9.81775 9.81677C9.44006 10.1953 9.22266 10.7189 9.22266 11.2529C9.22266 11.7877 9.44006 12.3114 9.81775 12.6891C10.1954 13.0676 10.7191 13.2842 11.2539 13.2842Z" fill="url(#paint2_linear)"/>
<path d="M21.3951 45.8816C20.4112 46.4211 20.051 47.6558 20.5905 48.6396C20.9603 49.3133 21.6561 49.6949 22.3734 49.6949C22.7035 49.6949 23.0383 49.614 23.3486 49.4442C27.8784 46.9599 31.3633 43.0958 33.4017 38.5389C35.4408 43.0958 38.9249 46.9599 43.4548 49.4442C43.765 49.614 44.0998 49.6949 44.4299 49.6949C45.1472 49.6949 45.8431 49.3133 46.2128 48.6396C46.7524 47.6558 46.3921 46.4211 45.4082 45.8816C40.1056 42.9736 36.5366 37.7764 35.6503 31.9041H44.6687C45.7907 31.9041 46.7 30.9948 46.7 29.8728C46.7 28.7509 45.7907 27.8416 44.6687 27.8416H35.4329V19.377C35.4329 18.255 34.5236 17.3457 33.4017 17.3457C32.2797 17.3457 31.3704 18.255 31.3704 19.377V27.8416H24.0325C22.9106 27.8416 22.0013 28.7509 22.0013 29.8728C22.0013 30.9948 22.9106 31.9041 24.0325 31.9041H31.153C30.2667 37.7764 26.6977 42.9744 21.3951 45.8816Z" fill="url(#paint3_linear)"/>
</g>

</svg>
