<svg width="24" height="24" viewBox="0 0 24 24" fill="none" xmlns="http://www.w3.org/2000/svg">
<g opacity="0.6">
<path fill-rule="evenodd" clip-rule="evenodd" d="M12 20C5 20 4 19 4 15C4 11 9 8 12 8C15 8 20 11 20 15C20 19 19 20 12 20Z" stroke="#313D56" stroke-width="2" stroke-linecap="round" stroke-linejoin="round"/>
<path d="M3 9C6 5 10.062 4 12 4C13.875 4 18 5 21 9" stroke="#313D56" stroke-width="2" stroke-linecap="round" stroke-linejoin="round"/>
<path d="M16 19.8085V13.9995H12V19.9995" stroke="#313D56" stroke-width="2" stroke-linecap="round" stroke-linejoin="round"/>
<path fill-rule="evenodd" clip-rule="evenodd" d="M9 14C9 14.553 8.552 15 8 15C7.448 15 7 14.553 7 14C7 13.447 7.448 13 8 13C8.552 13 9 13.447 9 14Z" fill="#313D56"/>
</g></svg>
