<svg width="56" height="46" viewBox="0 0 56 46" fill="none" xmlns="http://www.w3.org/2000/svg">
<defs>
<filter id="filter0_d" x="0.70166" y="0" width="48.8724" height="41.8996" filterUnits="userSpaceOnUse" color-interpolation-filters="sRGB">
<feFlood flood-opacity="0" result="BackgroundImageFix"/>
<feColorMatrix in="SourceAlpha" type="matrix" values="0 0 0 0 0 0 0 0 0 0 0 0 0 0 0 0 0 0 127 0"/>
<feOffset dy="5"/>
<feGaussianBlur stdDeviation="4"/>
<feColorMatrix type="matrix" values="0 0 0 0 0.1125 0 0 0 0 0.295916 0 0 0 0 1 0 0 0 0.22 0"/>
<feBlend mode="normal" in2="BackgroundImageFix" result="effect1_dropShadow"/>
<feBlend mode="normal" in="SourceGraphic" in2="effect1_dropShadow" result="shape"/>
</filter>
<linearGradient id="paint0_linear" x1="8.70166" y1="3" x2="33.8822" y2="34.9598" gradientUnits="userSpaceOnUse">
<stop stop-color="#F96289"/>
<stop offset="1" stop-color="#3F5EFB"/>
</linearGradient>
<linearGradient id="paint1_linear" x1="27.3109" y1="23.6084" x2="36.7168" y2="23.6084" gradientUnits="userSpaceOnUse">
<stop stop-color="#BDCFFF"/>
<stop offset="1" stop-color="#91A5FF" stop-opacity="0.5"/>
</linearGradient>
<linearGradient id="paint2_linear" x1="24.7054" y1="20.2215" x2="35.7127" y2="20.2215" gradientUnits="userSpaceOnUse">
<stop stop-color="#BDCFFF"/>
<stop offset="1" stop-color="#91A5FF" stop-opacity="0.5"/>
</linearGradient>
<linearGradient id="paint3_linear" x1="31.1972" y1="14.0471" x2="35.2308" y2="14.0471" gradientUnits="userSpaceOnUse">
<stop stop-color="#BDCFFF"/>
<stop offset="1" stop-color="#91A5FF" stop-opacity="0.5"/>
</linearGradient>
</defs>
<path opacity="0.1" d="M54.1652 24.5901C54.1652 29.3661 52.5629 33.7949 49.8778 37.3552C48.4054 39.2656 46.6298 40.959 44.5943 42.2615C41.303 44.4325 37.362 45.6916 33.1179 45.6916C21.4683 45.6482 12.0273 36.1829 12.0273 24.5901C12.0273 12.9104 21.4683 3.48853 33.0746 3.48853C37.3187 3.48853 41.2597 4.74767 44.551 6.87519C46.5865 8.17776 48.3621 9.87109 49.8345 11.7815C52.5629 15.3419 54.1652 19.7706 54.1652 24.5901Z" fill="#989EAA"/>
<path d="M8.73622 27.0214C9.12599 27.0214 9.47244 26.7175 9.47244 26.2833C9.47244 25.8925 9.16929 25.5452 8.73622 25.5452C8.30315 25.5886 8 25.8925 8 26.3267C8 26.7175 8.30315 27.0214 8.73622 27.0214Z" fill="#3F5EFB"/>
<path d="M13.1102 43.0431C13.5 43.0431 13.8465 42.7392 13.8465 42.305C13.8465 41.9142 13.5433 41.5669 13.1102 41.5669C12.7205 41.5669 12.374 41.8708 12.374 42.305C12.4173 42.7392 12.7205 43.0431 13.1102 43.0431Z" fill="#F96289"/>
<path d="M22.6877 35.5084C23.206 35.5084 23.6668 35.1052 23.6668 34.5292C23.6668 34.0108 23.2636 33.55 22.6877 33.55C22.1693 33.55 21.7085 33.9532 21.7085 34.5292C21.7661 35.1052 22.1693 35.5084 22.6877 35.5084Z" fill="#F96289"/>
<path d="M52.8785 11.4006C53.5281 10.7928 53.5714 9.79412 52.9651 9.14284C52.3588 8.49156 51.3627 8.44814 50.6698 9.056C50.0202 9.66386 49.9769 10.6625 50.5832 11.3138C51.1895 11.9651 52.1856 12.0085 52.8785 11.4006Z" fill="#EAEEF9"/>
<path d="M47.0059 6.73852C47.3957 6.73852 47.6988 6.43459 47.6988 6.04382C47.6988 5.65305 47.3957 5.34912 47.0059 5.34912C46.6161 5.34912 46.313 5.65305 46.313 6.04382C46.313 6.43459 46.6161 6.73852 47.0059 6.73852Z" fill="#3F5EFB"/>
<path d="M30.52 26.2401V31.3201C30.52 31.7543 30.9098 32.145 31.3429 32.145C32.5988 32.145 33.5948 31.1898 33.6814 29.9307L33.898 25.502" fill="#EAEEF9"/>
<path d="M30.52 26.2401V31.3201C30.52 31.7543 30.9098 32.145 31.3429 32.145C32.5988 32.145 33.5948 31.1898 33.6814 29.9307L33.898 25.502" stroke="#313D56" stroke-miterlimit="10"/>
<path d="M32.1655 26.9783L33.9844 36.1396C34.071 36.5738 34.5041 36.8778 34.9372 36.7909C36.1498 36.5304 36.9726 35.4015 36.7994 34.1424L35.7167 27.0651" fill="white"/>
<path d="M32.1655 26.9783L33.9844 36.1396C34.071 36.5738 34.5041 36.8778 34.9372 36.7909C36.1498 36.5304 36.9726 35.4015 36.7994 34.1424L35.7167 27.0651" stroke="#313D56" stroke-miterlimit="10"/>
<g filter="url(#filter0_d)">
<path d="M10.1654 21.3337L34.5473 28.8018C35.63 29.1491 36.756 28.5412 37.1025 27.4558L41.4765 13.1276C41.823 12.0421 41.2167 10.9132 40.134 10.5659L15.7087 3.09782C14.626 2.75047 13.5001 3.35833 13.1536 4.4438L8.77958 18.772C8.47643 19.8575 9.08273 21.0298 10.1654 21.3337Z" fill="url(#paint0_linear)"/>
</g>
<path d="M36.2795 25.3718C36.2362 25.3718 36.1929 25.3718 36.1496 25.3718L27.6181 22.7666C27.4016 22.6798 27.2716 22.4627 27.3149 22.2456C27.4016 22.0285 27.6181 21.8982 27.8346 21.9417L36.3661 24.5468C36.5827 24.6336 36.7126 24.8507 36.6693 25.0678C36.626 25.2415 36.4528 25.3718 36.2795 25.3718Z" fill="url(#paint1_linear)"/>
<path d="M35.2837 22.2021C35.2404 22.2021 35.1971 22.2021 35.1538 22.2021L25.0199 19.076C24.8034 18.9891 24.6735 18.772 24.7168 18.5549C24.8034 18.3378 25.0199 18.2076 25.2365 18.251L35.3704 21.3772C35.5869 21.464 35.7168 21.6811 35.6735 21.8982C35.6302 22.0719 35.457 22.2021 35.2837 22.2021Z" fill="url(#paint2_linear)"/>
<path d="M39.7009 19.4233C42.7757 20.118 46.5001 20.9864 48.5788 21.464C49.5749 21.6811 50.3111 22.4192 50.6143 23.4179C51.0041 24.8507 51.567 26.9348 51.8702 28.4979C52.3899 31.103 52.3899 33.3608 54.1655 36.0527C54.3387 36.3133 54.5552 36.6172 54.7285 36.8777C55.1182 37.3987 55.0749 38.1369 54.6852 38.6579C54.6852 38.6579 51.0041 42.1314 49.3151 43.7379C48.7954 44.2155 48.0159 44.3023 47.4096 43.9116C45.7206 42.8695 42.3859 40.7854 41.3466 39.8736C39.9174 38.6579 38.7914 37.1382 37.9253 35.3146C37.0591 33.491 36.5828 32.1016 33.508 29.0623C31.9922 27.5861 30.8662 26.2401 30.0434 25.2849C29.3072 24.3731 29.3505 23.0271 30.2166 22.2021C31.1261 21.2903 32.5985 21.2903 33.508 22.2021L41.13 29.8004C41.13 29.8004 40.004 28.5847 40.4371 25.4151L38.1851 24.2862" fill="white"/>
<path d="M39.7009 19.4233C42.7757 20.118 46.5001 20.9864 48.5788 21.464C49.5749 21.6811 50.3111 22.4192 50.6143 23.4179C51.0041 24.8507 51.567 26.9348 51.8702 28.4979C52.3899 31.103 52.3899 33.3608 54.1655 36.0527C54.3387 36.3133 54.5552 36.6172 54.7285 36.8777C55.1182 37.3987 55.0749 38.1369 54.6852 38.6579C54.6852 38.6579 51.0041 42.1314 49.3151 43.7379C48.7954 44.2155 48.0159 44.3023 47.4096 43.9116C45.7206 42.8695 42.3859 40.7854 41.3466 39.8736C39.9174 38.6579 38.7914 37.1382 37.9253 35.3146C37.0591 33.491 36.5828 32.1016 33.508 29.0623C31.9922 27.5861 30.8662 26.2401 30.0434 25.2849C29.3072 24.3731 29.3505 23.0271 30.2166 22.2021C31.1261 21.2903 32.5985 21.2903 33.508 22.2021L41.13 29.8004C41.13 29.8004 40.004 28.5847 40.4371 25.4151L38.1851 24.2862" stroke="#313D56" stroke-miterlimit="10" stroke-linecap="round" stroke-linejoin="round"/>
<path d="M41.9527 30.4951C41.6929 30.278 41.3897 29.9741 41.1299 29.6267L41.9527 30.4951Z" fill="white"/>
<path d="M41.9527 30.4951C41.6929 30.278 41.3897 29.9741 41.1299 29.6267" stroke="#313D56" stroke-miterlimit="10" stroke-linecap="round" stroke-linejoin="round"/>
<path opacity="0.3" d="M30.694 24.8157C30.8675 25.0273 31.0844 25.2813 31.3013 25.5352C31.4749 25.7468 31.822 25.7891 32.0389 25.5775L33.6875 24.0962C33.9044 23.8846 33.9044 23.5883 33.6875 23.3767L33.0367 22.6572C32.733 22.3609 32.2992 22.1917 31.9087 22.1917C31.4749 22.1917 31.041 22.3609 30.7373 22.6995C30.1733 23.2921 30.2167 24.2232 30.694 24.8157Z" fill="#989EAA"/>
<path d="M20.1263 17.4261C20.2129 17.4261 20.2562 17.4261 20.3428 17.3827C20.6027 17.2524 20.7759 16.9485 20.646 16.688C20.4294 16.0801 20.3861 15.4288 20.6027 14.821C20.8192 14.2131 21.209 13.6921 21.7287 13.3447C21.9885 13.1711 22.0318 12.8237 21.9019 12.6066C21.7287 12.3461 21.3822 12.3027 21.1657 12.4329C20.4294 12.9106 19.8664 13.6487 19.6066 14.517C19.3468 15.3854 19.3468 16.2972 19.6932 17.1222C19.7365 17.2959 19.9098 17.4261 20.1263 17.4261Z" fill="white"/>
<path d="M17.9608 18.5549C18.0474 18.5549 18.0907 18.5549 18.1773 18.5115C18.4371 18.3813 18.5671 18.0773 18.4371 17.7734C17.9174 16.6011 17.8308 15.2551 18.2206 14.0394C18.6104 12.8237 19.4332 11.7816 20.5592 11.1303C20.819 10.9567 20.9056 10.6527 20.7324 10.3922C20.5592 10.1317 20.256 10.0449 19.9962 10.2185C18.6537 11.0001 17.6576 12.2592 17.1812 13.7355C16.7048 15.2117 16.7915 16.8182 17.4411 18.251C17.5277 18.4681 17.7442 18.5549 17.9608 18.5549Z" fill="white"/>
<path d="M15.882 19.6405C15.9686 19.6405 16.0552 19.6405 16.0985 19.5971C16.3584 19.4668 16.4883 19.1629 16.3584 18.859C15.5789 17.1222 15.4489 15.1684 16.0119 13.3448C16.5749 11.5212 17.8308 10.0015 19.4765 9.04631C19.7363 8.91605 19.823 8.5687 19.693 8.30819C19.5631 8.04768 19.2167 7.96084 18.9568 8.09109C17.0513 9.17656 15.6655 10.9133 15.0159 12.9974C14.3663 15.0815 14.4962 17.2959 15.4056 19.2931C15.4922 19.5102 15.7088 19.6405 15.882 19.6405Z" fill="white"/>
<path d="M37.7333 15.4662C38.0668 14.3899 37.4669 13.2463 36.3934 12.9119C35.3198 12.5775 34.1791 13.1789 33.8456 14.2552C33.5121 15.3316 34.112 16.4752 35.1855 16.8096C36.2591 17.144 37.3998 16.5425 37.7333 15.4662Z" fill="white"/>
<path d="M33.2049 16.0801C34.329 16.0801 35.2403 15.1665 35.2403 14.0395C35.2403 12.9124 34.329 11.9988 33.2049 11.9988C32.0807 11.9988 31.1694 12.9124 31.1694 14.0395C31.1694 15.1665 32.0807 16.0801 33.2049 16.0801Z" fill="url(#paint3_linear)"/>

</svg>
