<svg width="180" height="175" viewBox="0 0 180 175" fill="none" xmlns="http://www.w3.org/2000/svg">
<defs>
<filter id="filter0_d" x="0.00927734" y="7.23877" width="171.062" height="166.948" filterUnits="userSpaceOnUse" color-interpolation-filters="sRGB">
<feFlood flood-opacity="0" result="BackgroundImageFix"/>
<feColorMatrix in="SourceAlpha" type="matrix" values="0 0 0 0 0 0 0 0 0 0 0 0 0 0 0 0 0 0 127 0"/>
<feOffset dy="11"/>
<feGaussianBlur stdDeviation="11"/>
<feColorMatrix type="matrix" values="0 0 0 0 0.397708 0 0 0 0 0.47749 0 0 0 0 0.575 0 0 0 0.18 0"/>
<feBlend mode="normal" in2="BackgroundImageFix" result="effect1_dropShadow"/>
<feBlend mode="normal" in="SourceGraphic" in2="effect1_dropShadow" result="shape"/>
</filter>
<filter id="filter1_d" x="29.1787" y="0.897461" width="150.495" height="169.515" filterUnits="userSpaceOnUse" color-interpolation-filters="sRGB">
<feFlood flood-opacity="0" result="BackgroundImageFix"/>
<feColorMatrix in="SourceAlpha" type="matrix" values="0 0 0 0 0 0 0 0 0 0 0 0 0 0 0 0 0 0 127 0"/>
<feOffset dy="11"/>
<feGaussianBlur stdDeviation="11"/>
<feColorMatrix type="matrix" values="0 0 0 0 0.397708 0 0 0 0 0.47749 0 0 0 0 0.575 0 0 0 0.18 0"/>
<feBlend mode="normal" in2="BackgroundImageFix" result="effect1_dropShadow"/>
<feBlend mode="normal" in="SourceGraphic" in2="effect1_dropShadow" result="shape"/>
</filter>
<filter id="filter2_d" x="20.5566" y="6.94312" width="136.712" height="159.79" filterUnits="userSpaceOnUse" color-interpolation-filters="sRGB">
<feFlood flood-opacity="0" result="BackgroundImageFix"/>
<feColorMatrix in="SourceAlpha" type="matrix" values="0 0 0 0 0 0 0 0 0 0 0 0 0 0 0 0 0 0 127 0"/>
<feOffset dy="11"/>
<feGaussianBlur stdDeviation="11"/>
<feColorMatrix type="matrix" values="0 0 0 0 0.397708 0 0 0 0 0.47749 0 0 0 0 0.575 0 0 0 0.18 0"/>
<feBlend mode="normal" in2="BackgroundImageFix" result="effect1_dropShadow"/>
<feBlend mode="normal" in="SourceGraphic" in2="effect1_dropShadow" result="shape"/>
</filter>
<filter id="filter3_d" x="64.3335" y="56" width="49.3333" height="61.5" filterUnits="userSpaceOnUse" color-interpolation-filters="sRGB">
<feFlood flood-opacity="0" result="BackgroundImageFix"/>
<feColorMatrix in="SourceAlpha" type="matrix" values="0 0 0 0 0 0 0 0 0 0 0 0 0 0 0 0 0 0 127 0"/>
<feOffset dy="17"/>
<feGaussianBlur stdDeviation="6.5"/>
<feColorMatrix type="matrix" values="0 0 0 0 0.1125 0 0 0 0 0.295916 0 0 0 0 1 0 0 0 0.21 0"/>
<feBlend mode="normal" in2="BackgroundImageFix" result="effect1_dropShadow"/>
<feBlend mode="normal" in="SourceGraphic" in2="effect1_dropShadow" result="shape"/>
</filter>
<linearGradient id="paint0_linear" x1="79.9956" y1="93.9534" x2="83.2489" y2="97.1961" gradientUnits="userSpaceOnUse">
<stop stop-color="#F96289"/>
<stop offset="1" stop-color="#3F5EFB"/>
</linearGradient>
<linearGradient id="paint1_linear" x1="81.0273" y1="103.417" x2="83.0976" y2="105.481" gradientUnits="userSpaceOnUse">
<stop stop-color="#F96289"/>
<stop offset="1" stop-color="#3F5EFB"/>
</linearGradient>
<linearGradient id="paint2_linear" x1="87.3652" y1="96.4673" x2="90.0271" y2="99.1204" gradientUnits="userSpaceOnUse">
<stop stop-color="#F96289"/>
<stop offset="1" stop-color="#3F5EFB"/>
</linearGradient>
<linearGradient id="paint3_linear" x1="94.5879" y1="91.8831" x2="97.8412" y2="95.1258" gradientUnits="userSpaceOnUse">
<stop stop-color="#F96289"/>
<stop offset="1" stop-color="#3F5EFB"/>
</linearGradient>
<linearGradient id="paint4_linear" x1="92.6714" y1="104.749" x2="94.7417" y2="106.812" gradientUnits="userSpaceOnUse">
<stop stop-color="#F96289"/>
<stop offset="1" stop-color="#3F5EFB"/>
</linearGradient>
<linearGradient id="paint5_linear" x1="86.7759" y1="108.002" x2="89.1419" y2="110.36" gradientUnits="userSpaceOnUse">
<stop stop-color="#F96289"/>
<stop offset="1" stop-color="#3F5EFB"/>
</linearGradient>
<linearGradient id="paint6_linear" x1="88.8389" y1="120.276" x2="89.7261" y2="121.16" gradientUnits="userSpaceOnUse">
<stop stop-color="#F96289"/>
<stop offset="1" stop-color="#3F5EFB"/>
</linearGradient>
<linearGradient id="paint7_linear" x1="85.5967" y1="114.213" x2="87.0755" y2="115.687" gradientUnits="userSpaceOnUse">
<stop stop-color="#F96289"/>
<stop offset="1" stop-color="#3F5EFB"/>
</linearGradient>
<linearGradient id="paint8_linear" x1="70.8569" y1="53.73" x2="107.827" y2="90.5789" gradientUnits="userSpaceOnUse">
<stop stop-color="#F96289"/>
<stop offset="1" stop-color="#3F5EFB"/>
</linearGradient>
<linearGradient id="paint9_linear" x1="82.6484" y1="65.5603" x2="106.457" y2="89.291" gradientUnits="userSpaceOnUse">
<stop stop-color="#F96289"/>
<stop offset="1" stop-color="#3F5EFB"/>
</linearGradient>
<linearGradient id="paint10_linear" x1="96.1112" y1="79.0619" x2="86.1755" y2="69.1586" gradientUnits="userSpaceOnUse">
<stop offset="0.0113208" stop-color="#C2D1FF"/>
<stop offset="1" stop-color="white"/>
</linearGradient>
</defs>
<path d="M90.9023 143.641C128.511 143.641 158.999 113.053 158.999 75.3204C158.999 37.5881 128.511 7 90.9023 7C53.2933 7 22.8052 37.5881 22.8052 75.3204C22.8052 113.053 53.2933 143.641 90.9023 143.641Z" fill="#F5F5F5"/>
<path d="M80.2903 36.2803L133.206 80.4963C136.301 83.0102 136.743 87.5945 134.09 90.7L94.1455 138.613C91.6398 141.718 87.0705 142.162 83.9752 139.5L21.6265 87.4466C18.5312 84.9327 18.089 80.3484 20.7421 77.2429L52.7271 38.7942L80.2903 36.2803Z" fill="#E1EAF2"/>
<path d="M80.2901 36.2803L70.7094 47.9628C69.088 49.8852 66.1401 50.181 64.0765 48.4064L52.5796 38.7942L80.2901 36.2803Z" fill="#CED7E2"/>
<g filter="url(#filter0_d)">
<path d="M145.587 98.8332L141.165 101.939L87.9553 139.648C84.2703 142.31 79.1115 141.422 76.6057 137.726L23.543 62.3069C20.8899 58.6099 21.7742 53.4341 25.4592 50.9202L71.7416 18.2388L102.695 23.5624L142.934 80.644L147.651 87.2986C150.157 91.1434 149.272 96.1713 145.587 98.8332Z" fill="#F0F5FA"/>
</g>
<path d="M102.695 23.5624L88.9871 33.4704C86.6287 35.2449 83.2386 34.6534 81.4699 32.1395L71.7417 18.2388H71.8891L102.695 23.5624Z" fill="#CED7E2"/>
<path d="M145.587 98.8332L141.165 101.939V80.644H142.786L147.503 87.2986C150.156 91.1435 149.272 96.1714 145.587 98.8332Z" fill="#CED7E2"/>
<g filter="url(#filter1_d)">
<path d="M157.673 57.1311L134.385 131.662C133.058 135.951 128.489 138.465 124.214 136.986L56.8542 115.839C52.5797 114.508 50.2214 109.924 51.5479 105.488L78.9637 17.6472C80.2902 13.3587 84.8595 10.8447 89.134 12.3235L143.229 29.1818" fill="#F0F5FA"/>
</g>
<path opacity="0.5" d="M147.061 61.4197L137.186 93.066C136.596 94.8405 134.827 95.8757 133.058 95.2842L73.3629 76.5035C71.5941 75.9119 70.5623 74.1374 71.1519 72.3628L81.0275 40.7166C81.6171 38.942 83.3858 37.9069 85.1546 38.4984L144.85 57.2791C146.619 57.7227 147.651 59.6452 147.061 61.4197Z" fill="#CED7E2"/>
<path d="M157.674 57.1311L141.46 52.1032C138.66 51.2159 137.038 48.2583 137.923 45.3007L142.934 29.0339H143.081L157.674 57.1311Z" fill="#E6EDF5"/>
<path d="M135.269 47.0753L117.287 45.3008C114.192 45.005 111.833 42.1953 112.276 38.9419L114.192 20.9006H114.339L135.269 47.0753Z" fill="#CED7E2"/>
<g filter="url(#filter2_d)">
<path d="M135.269 41.7517V125.008C135.269 129.888 131.437 133.733 126.573 133.733H51.253C46.3889 133.733 42.5566 129.888 42.5566 125.008V26.668C42.5566 21.788 46.5363 17.9431 51.253 17.9431H111.538L135.269 41.7517Z" fill="white"/>
</g>
<path d="M135.269 41.7517L117.139 41.8996C113.896 41.8996 111.391 39.3857 111.391 36.1323V17.9431H111.538L135.269 41.7517Z" fill="#D6D8DD"/>
<path d="M118.613 86.855H61.2758C59.9493 86.855 58.9175 85.8198 58.9175 84.4889V51.3639C58.9175 50.033 59.9493 48.9978 61.2758 48.9978H118.613C119.94 48.9978 120.971 50.033 120.971 51.3639V84.341C121.119 85.6719 119.94 86.855 118.613 86.855Z" fill="#F5F5F5"/>
<path d="M119.793 98.5375H60.6868C59.8024 98.5375 59.0654 97.7981 59.0654 96.9109C59.0654 96.0236 59.8024 95.2842 60.6868 95.2842H119.793C120.677 95.2842 121.414 96.0236 121.414 96.9109C121.414 97.7981 120.677 98.5375 119.793 98.5375Z" fill="#D6D8DD"/>
<path d="M119.793 107.706H60.6868C59.8024 107.706 59.0654 106.967 59.0654 106.079C59.0654 105.192 59.8024 104.453 60.6868 104.453H119.793C120.677 104.453 121.414 105.192 121.414 106.079C121.414 106.967 120.677 107.706 119.793 107.706Z" fill="#D6D8DD"/>
<path d="M89.8713 115.248C89.8713 116.135 89.1343 116.875 88.2499 116.875H60.6868C59.8024 116.875 59.0654 116.135 59.0654 115.248C59.0654 114.361 59.8024 113.621 60.6868 113.621H88.2499C89.1343 113.621 89.8713 114.361 89.8713 115.248Z" fill="#D6D8DD"/>
<path d="M91.0505 31.2524H60.6868C59.8024 31.2524 59.0654 30.513 59.0654 29.6257C59.0654 28.7384 59.8024 27.999 60.6868 27.999H91.0505C91.9348 27.999 92.6718 28.7384 92.6718 29.6257C92.6718 30.513 91.9348 31.2524 91.0505 31.2524Z" fill="#D6D8DD"/>
<path d="M74.0999 40.4208H60.6868C59.8024 40.4208 59.0654 39.6814 59.0654 38.7942C59.0654 37.9069 59.8024 37.1675 60.6868 37.1675H74.0999C74.9842 37.1675 75.7212 37.9069 75.7212 38.7942C75.5738 39.6814 74.9842 40.4208 74.0999 40.4208Z" fill="#D6D8DD"/>
<path d="M101.957 140.24C101.073 142.606 99.4516 144.676 97.2407 145.859C89.2813 150 80.5849 142.162 83.0906 133.733H85.5964C82.6484 143.345 93.998 147.929 98.7147 141.571C99.8938 140.092 99.599 140.092 105.347 121.607C106.821 116.727 102.105 114.213 98.7147 115.987C96.5037 117.17 96.7985 117.762 91.787 133.733C91.6396 134.029 91.6396 134.324 91.6396 134.324C91.3448 135.655 92.3766 136.838 93.5558 136.691C94.8823 136.691 95.0297 134.916 95.4719 133.733C97.6829 126.635 98.1251 125.304 98.1251 125.156C98.7147 123.825 100.926 124.269 100.336 126.191C96.9459 137.874 96.9459 137.874 95.3245 138.613C91.6396 140.535 88.1021 136.247 89.2813 133.733C94.4402 117.023 94.2928 115.396 97.3881 113.917C102.252 111.403 107.411 114.361 108.001 119.093C108.148 120.572 108.443 120.128 101.957 140.24Z" fill="#F96289"/>
<g filter="url(#filter3_d)">
<ellipse cx="89.0002" cy="71.75" rx="11.6667" ry="15.75" fill="#6382FF"/>
</g>
<path d="M81.617 97.2067C82.5124 97.2067 83.2383 96.4784 83.2383 95.58C83.2383 94.6817 82.5124 93.9534 81.617 93.9534C80.7215 93.9534 79.9956 94.6817 79.9956 95.58C79.9956 96.4784 80.7215 97.2067 81.617 97.2067Z" fill="url(#paint0_linear)"/>
<path d="M82.0591 105.488C82.629 105.488 83.0909 105.024 83.0909 104.453C83.0909 103.881 82.629 103.417 82.0591 103.417C81.4893 103.417 81.0273 103.881 81.0273 104.453C81.0273 105.024 81.4893 105.488 82.0591 105.488Z" fill="url(#paint1_linear)"/>
<path d="M88.6918 99.1291C89.4244 99.1291 90.0184 98.5332 90.0184 97.7982C90.0184 97.0632 89.4244 96.4673 88.6918 96.4673C87.9592 96.4673 87.3652 97.0632 87.3652 97.7982C87.3652 98.5332 87.9592 99.1291 88.6918 99.1291Z" fill="url(#paint2_linear)"/>
<path d="M96.2093 95.1364C97.1047 95.1364 97.8306 94.4081 97.8306 93.5097C97.8306 92.6113 97.1047 91.8831 96.2093 91.8831C95.3138 91.8831 94.5879 92.6113 94.5879 93.5097C94.5879 94.4081 95.3138 95.1364 96.2093 95.1364Z" fill="url(#paint3_linear)"/>
<path d="M93.7032 106.819C94.273 106.819 94.7349 106.355 94.7349 105.784C94.7349 105.212 94.273 104.749 93.7032 104.749C93.1333 104.749 92.6714 105.212 92.6714 105.784C92.6714 106.355 93.1333 106.819 93.7032 106.819Z" fill="url(#paint4_linear)"/>
<path d="M87.955 110.368C88.6063 110.368 89.1342 109.838 89.1342 109.185C89.1342 108.532 88.6063 108.002 87.955 108.002C87.3038 108.002 86.7759 108.532 86.7759 109.185C86.7759 109.838 87.3038 110.368 87.955 110.368Z" fill="url(#paint5_linear)"/>
<path d="M89.2811 121.163C89.5253 121.163 89.7232 120.965 89.7232 120.72C89.7232 120.475 89.5253 120.276 89.2811 120.276C89.0368 120.276 88.8389 120.475 88.8389 120.72C88.8389 120.965 89.0368 121.163 89.2811 121.163Z" fill="url(#paint6_linear)"/>
<path d="M86.3337 115.691C86.7407 115.691 87.0706 115.36 87.0706 114.952C87.0706 114.544 86.7407 114.213 86.3337 114.213C85.9266 114.213 85.5967 114.544 85.5967 114.952C85.5967 115.36 85.9266 115.691 86.3337 115.691Z" fill="url(#paint7_linear)"/>
<path d="M79.1111 56.6876C82.0591 54.7651 85.4492 53.73 89.2815 53.73C99.4519 53.73 107.706 62.0112 107.706 72.2149C107.706 82.4186 99.4519 90.6999 89.2815 90.6999C79.1111 90.6999 70.8569 82.4186 70.8569 72.2149C70.8569 65.7082 74.0997 60.0888 79.1111 56.6876Z" fill="url(#paint8_linear)"/>
<path d="M106.379 78.8695L95.9141 68.37L92.3766 67.0391L88.5443 65.5603L82.6484 70.884L88.8391 77.0949L87.9547 81.3834L95.9141 89.3689L106.379 78.8695Z" fill="url(#paint9_linear)"/>
<path d="M90.4606 62.8985L95.9143 68.3701C96.6513 69.1095 96.6513 70.1446 95.9143 70.884C95.1773 71.6234 94.1455 71.6234 93.4085 70.884L90.9028 68.3701V80.2005C90.9028 81.0877 90.1658 81.975 89.134 81.975C88.2497 81.975 87.3653 81.2356 87.3653 80.2005V68.3701L84.8596 70.884C84.1226 71.6234 83.0908 71.6234 82.3538 70.884C82.059 70.5883 81.9116 70.1446 81.9116 69.701C81.9116 69.2574 82.059 68.8137 82.3538 68.518L87.8075 63.0464C88.1023 62.7507 88.5445 62.6028 88.9867 62.6028C89.4288 62.6028 90.1658 62.6028 90.4606 62.8985Z" fill="url(#paint10_linear)"/>

</svg>
