<svg width="52" height="56" viewBox="0 0 52 56" fill="none" xmlns="http://www.w3.org/2000/svg">
<defs>
<filter id="filter0_d" x="20.248" y="24.3738" width="31.5494" height="31.6263" filterUnits="userSpaceOnUse" color-interpolation-filters="sRGB">
<feFlood flood-opacity="0" result="BackgroundImageFix"/>
<feColorMatrix in="SourceAlpha" type="matrix" values="0 0 0 0 0 0 0 0 0 0 0 0 0 0 0 0 0 0 127 0"/>
<feOffset dy="5"/>
<feGaussianBlur stdDeviation="4"/>
<feColorMatrix type="matrix" values="0 0 0 0 0.1125 0 0 0 0 0.295916 0 0 0 0 1 0 0 0 0.22 0"/>
<feBlend mode="normal" in2="BackgroundImageFix" result="effect1_dropShadow"/>
<feBlend mode="normal" in="SourceGraphic" in2="effect1_dropShadow" result="shape"/>
</filter>
<linearGradient id="paint0_linear" x1="4.54069" y1="22.3887" x2="12.8781" y2="22.3887" gradientUnits="userSpaceOnUse">
<stop stop-color="#D5DAE8"/>
<stop offset="1" stop-color="#9AA3BA"/>
</linearGradient>
<linearGradient id="paint1_linear" x1="22.0204" y1="27.8471" x2="23.2837" y2="20.6719" gradientUnits="userSpaceOnUse">
<stop stop-color="#FF66A9"/>
<stop offset="1" stop-color="#F53689"/>
</linearGradient>
<linearGradient id="paint2_linear" x1="28.248" y1="27.3738" x2="43.8742" y2="42.923" gradientUnits="userSpaceOnUse">
<stop stop-color="#F96289"/>
<stop offset="1" stop-color="#3F5EFB"/>
</linearGradient>
<linearGradient id="paint3_linear" x1="33.4668" y1="32.6694" x2="43.5163" y2="42.7404" gradientUnits="userSpaceOnUse">
<stop stop-color="#F96289"/>
<stop offset="1" stop-color="#3F5EFB"/>
</linearGradient>
<linearGradient id="paint4_linear" x1="40.5695" y1="34.8828" x2="36.1878" y2="30.5286" gradientUnits="userSpaceOnUse">
<stop offset="0.0113208" stop-color="#C2D1FF"/>
<stop offset="1" stop-color="white"/>
</linearGradient>
<linearGradient id="paint5_linear" x1="38.1558" y1="37.3119" x2="33.7742" y2="32.9577" gradientUnits="userSpaceOnUse">
<stop offset="0.0113208" stop-color="#C2D1FF"/>
<stop offset="1" stop-color="white"/>
</linearGradient>
<linearGradient id="paint6_linear" x1="37.6777" y1="37.7937" x2="33.2961" y2="33.4394" gradientUnits="userSpaceOnUse">
<stop offset="0.0113208" stop-color="#C2D1FF"/>
<stop offset="1" stop-color="white"/>
</linearGradient>
</defs>
<path opacity="0.1" d="M21.364 42.1485C32.9303 42.1485 42.3066 32.7132 42.3066 21.0742C42.3066 9.43526 32.9303 0 21.364 0C9.79771 0 0.421387 9.43526 0.421387 21.0742C0.421387 32.7132 9.79771 42.1485 21.364 42.1485Z" fill="#989EAA"/>
<path d="M42.1266 9.36788C42.7794 8.76755 42.825 7.74834 42.2285 7.09142C41.6319 6.43449 40.619 6.38861 39.9662 6.98894C39.3134 7.58926 39.2678 8.60847 39.8644 9.2654C40.461 9.92232 41.4738 9.9682 42.1266 9.36788Z" fill="#EAEEF9"/>
<path d="M2.49634 6.55968C3.04963 6.37872 3.35238 5.78066 3.17255 5.22389C2.99271 4.66711 2.39839 4.36246 1.84509 4.54343C1.2918 4.72439 0.989047 5.32245 1.16888 5.87922C1.34872 6.436 1.94304 6.74065 2.49634 6.55968Z" fill="#F96289"/>
<path d="M9.13386 1.5938C9.5101 1.47074 9.71597 1.06406 9.59368 0.685455C9.47139 0.306848 9.06725 0.099685 8.69101 0.222742C8.31477 0.345799 8.1089 0.752478 8.23119 1.13108C8.35348 1.50969 8.75762 1.71685 9.13386 1.5938Z" fill="#3F5EFB"/>
<path d="M5.20129 38.979C5.47616 38.7263 5.49536 38.2971 5.24417 38.0205C4.99298 37.7439 4.56652 37.7246 4.29165 37.9774C4.01677 38.2301 3.99758 38.6593 4.24877 38.9359C4.49996 39.2125 4.92642 39.2318 5.20129 38.979Z" fill="#3F5EFB"/>
<path d="M33.4289 1.00379C33.618 0.829935 33.6312 0.53477 33.4584 0.344522C33.2856 0.154274 32.9923 0.140987 32.8033 0.314843C32.6142 0.4887 32.601 0.783865 32.7738 0.974113C32.9465 1.16436 33.2399 1.17765 33.4289 1.00379Z" fill="#F96289"/>
<path d="M30.4127 35.2175H0L5.55713 9.56763H36.0035L30.4127 35.2175Z" fill="white"/>
<path d="M30.4127 35.2175H0L5.55713 9.56763H36.0035L30.4127 35.2175Z" fill="#D5DAE8"/>
<path d="M12.8657 35.2175H6.56763C5.42253 35.2175 4.4795 34.2375 4.54686 33.0885L5.55724 9.56763H7.07283L12.8657 35.2175Z" fill="url(#paint0_linear)"/>
<path d="M42.672 35.2175H12.2594L7.10639 15.5154L7.07271 15.3803L5.55713 9.56763H36.0035L37.317 14.603L37.5191 15.3803L37.5527 15.5154L42.672 35.2175Z" fill="white"/>
<path d="M37.5191 15.3803H7.07271L5.55713 9.56763H36.0035L37.317 14.603L37.5191 15.3803Z" fill="#D0D7EA"/>
<path opacity="0.3" d="M13.5729 13.7244C14.1681 13.7244 14.6506 13.2402 14.6506 12.6429C14.6506 12.0457 14.1681 11.5615 13.5729 11.5615C12.9776 11.5615 12.4951 12.0457 12.4951 12.6429C12.4951 13.2402 12.9776 13.7244 13.5729 13.7244Z" fill="#172D45"/>
<path opacity="0.3" d="M31.3556 13.7244C31.9508 13.7244 32.4333 13.2402 32.4333 12.6429C32.4333 12.0457 31.9508 11.5615 31.3556 11.5615C30.7604 11.5615 30.2778 12.0457 30.2778 12.6429C30.2778 13.2402 30.7604 13.7244 31.3556 13.7244Z" fill="#172D45"/>
<path d="M13.3034 13.0824C13.1013 13.0824 12.9329 12.9134 12.9329 12.7106C12.9329 12.5079 13.1013 12.3389 13.3034 12.3389C14.0443 12.3389 14.819 11.2913 14.819 9.70292C14.819 9.66913 14.819 9.60154 14.819 9.56774C14.7853 8.0132 14.0107 7.06696 13.3034 7.06696C12.6298 7.06696 11.8889 7.97941 11.7878 9.39877H11.0132C11.1142 7.64147 12.0909 6.32349 13.2697 6.32349C14.5159 6.32349 15.4926 7.77664 15.5599 9.63533C15.5599 9.66913 15.5599 9.70292 15.5599 9.73671C15.5936 11.5954 14.5832 13.0824 13.3034 13.0824Z" fill="#1C3754"/>
<path d="M30.985 13.0824C30.783 13.0824 30.6146 12.9134 30.6146 12.7106C30.6146 12.5079 30.783 12.3389 30.985 12.3389C31.726 12.3389 32.5006 11.2913 32.5006 9.70292C32.5006 9.66913 32.5006 9.60154 32.5006 9.56774C32.4669 8.0132 31.6923 7.06696 30.985 7.06696C30.3114 7.06696 29.5705 7.97941 29.4695 9.39877H28.6948C28.7959 7.64147 29.7726 6.32349 30.9514 6.32349C32.1975 6.32349 33.1742 7.77664 33.2416 9.63533C33.2416 9.66913 33.2416 9.70292 33.2416 9.73671C33.2752 11.5954 32.2649 13.0824 30.985 13.0824Z" fill="#1C3754"/>
<path d="M17.1764 32.514C17.0417 32.514 16.9069 32.4127 16.8396 32.2775L16.3007 30.2836H13.64C13.4379 30.2836 13.3032 30.1146 13.3032 29.9457C13.3032 29.7429 13.4716 29.6077 13.64 29.6077H16.0986L15.2566 26.6338H12.697C12.4949 26.6338 12.3602 26.4649 12.3602 26.2959C12.3602 26.0931 12.4949 25.9579 12.697 25.9579H15.0546L14.2126 22.984H11.7876C11.5856 22.984 11.4509 22.8151 11.4509 22.6461C11.4509 22.4433 11.5856 22.3082 11.7876 22.3082H14.0442L13.2022 19.3343H10.8783C10.6762 19.3343 10.5415 19.1653 10.5415 18.9963C10.5415 18.7935 10.6762 18.6584 10.8783 18.6584H13.0001L12.6633 17.4418C12.6296 17.2728 12.7307 17.07 12.8991 17.0362C12.9328 17.0362 12.9664 17.0362 13.0001 17.0362C13.1348 17.0362 13.2696 17.1376 13.3369 17.2728L13.7411 18.6584H16.4354C16.6375 18.6584 16.7722 18.7935 16.7722 18.9963C16.7722 19.1991 16.6375 19.3343 16.4354 19.3343H13.9431L14.7851 22.3082H19.0288L17.6816 17.4418C17.6479 17.2728 17.7489 17.07 17.9173 17.0362C17.951 17.0362 17.9847 17.0362 18.0184 17.0362C18.1531 17.0362 18.2878 17.1376 18.3552 17.2728L18.7593 18.6584H20.2075C20.4096 18.6584 20.5443 18.7935 20.5443 18.9963C20.5443 19.1991 20.3759 19.3343 20.2075 19.3343H18.9614L19.8034 22.3082H22.6662C22.8682 22.3082 23.003 22.4771 23.003 22.6461C23.003 22.8489 22.8682 22.984 22.6662 22.984H20.0055L20.8475 25.9579H25.1248L23.2724 19.3343H22.363C22.161 19.3343 22.0262 19.1653 22.0262 18.9963C22.0262 18.7935 22.1946 18.6584 22.363 18.6584H23.0703L22.7335 17.4418C22.6998 17.3404 22.7335 17.2728 22.7672 17.1714C22.8009 17.1038 22.8682 17.0362 22.9693 17.0024C23.003 17.0024 23.0366 17.0024 23.0703 17.0024C23.205 17.0024 23.3398 17.1038 23.4071 17.239L23.8113 18.6246H24.5185C24.7206 18.6246 24.8553 18.7597 24.8553 18.9625C24.8553 19.1653 24.7206 19.3005 24.5185 19.3005H24.0133L24.8553 22.2744H29.1326L28.2907 19.3005H26.1015C25.8994 19.3005 25.7647 19.1315 25.7647 18.9625C25.7647 18.7597 25.9331 18.6246 26.1015 18.6246H27.9875L27.6507 17.408C27.6171 17.239 27.7181 17.0362 27.8865 17.0024C27.9202 17.0024 27.9539 17.0024 27.9875 17.0024C28.1223 17.0024 28.257 17.1038 28.3243 17.239L28.7285 18.6246H33.0058L32.669 17.408C32.6353 17.239 32.7364 17.0362 32.9048 17.0024C32.9384 17.0024 32.9721 17.0024 33.0058 17.0024C33.1405 17.0024 33.2752 17.1038 33.3426 17.239L33.7467 18.6246H36.3738C36.5758 18.6246 36.7106 18.7597 36.7106 18.9625C36.7106 19.1653 36.5758 19.3005 36.3738 19.3005H33.8478L34.6898 22.2744H37.2157C37.4178 22.2744 37.5525 22.4433 37.5525 22.6123C37.5525 22.8151 37.4178 22.9502 37.2157 22.9502H34.8919L35.7338 25.9241H38.1588C38.3609 25.9241 38.4956 26.0931 38.4956 26.2621C38.4956 26.4649 38.3609 26.6 38.1588 26.6H35.9359L36.7779 29.5739H39.0681C39.2702 29.5739 39.4049 29.7429 39.4049 29.9119C39.4049 30.1146 39.2365 30.2498 39.0681 30.2498H36.9463L37.4515 32.0409C37.4852 32.2099 37.3841 32.4127 37.2157 32.4465C37.1821 32.4465 37.1484 32.4465 37.1147 32.4465C36.98 32.4465 36.8453 32.3451 36.7779 32.2099L36.239 30.2498H31.9617L32.4669 32.0071C32.5006 32.1085 32.4669 32.1761 32.4332 32.2775C32.3996 32.3451 32.3322 32.4127 32.2312 32.4465C32.1975 32.4465 32.1638 32.4465 32.1301 32.4465C31.9954 32.4465 31.8607 32.3451 31.7933 32.2099L31.2545 30.2836H26.9771L27.4823 32.0409C27.516 32.2099 27.415 32.4127 27.2466 32.4465C27.2129 32.4465 27.1792 32.4465 27.1455 32.4465C27.0108 32.4465 26.8761 32.3451 26.8088 32.2099L26.2699 30.2836H21.9926L22.4978 32.0409C22.5314 32.2099 22.4304 32.4127 22.262 32.4465C22.2283 32.4465 22.1946 32.4465 22.161 32.4465C22.0262 32.4465 21.8915 32.3451 21.8242 32.2099L21.2853 30.2836H17.008L17.5132 32.0747C17.5469 32.1761 17.5132 32.2437 17.4795 32.3451C17.4458 32.4127 17.3785 32.4803 17.2774 32.514C17.2437 32.514 17.2101 32.514 17.1764 32.514ZM26.7751 29.6077H36.037L35.195 26.6338H30.9177L31.2208 27.7152C31.2545 27.8166 31.2208 27.8842 31.1871 27.9856C31.1534 28.0532 31.0861 28.1208 30.985 28.1546C30.9513 28.1546 30.9177 28.1546 30.884 28.1546C30.7493 28.1546 30.6145 28.0532 30.5472 27.918L30.2104 26.6676H28.9306C28.7285 26.6676 28.5938 26.4987 28.5938 26.3297C28.5938 26.1269 28.7285 25.9917 28.9306 25.9917H30.0083L29.1663 23.0178H24.9227L25.7647 25.9917H26.8088C27.0108 25.9917 27.1455 26.1607 27.1455 26.3297C27.1455 26.5324 27.0108 26.6676 26.8088 26.6676H25.9331L26.7751 29.6077ZM21.7905 29.6077H26.0678L25.2258 26.6338H20.9485L21.7905 29.6077ZM16.8059 29.6077H21.0832L20.2412 26.6338H18.9951C18.793 26.6338 18.6583 26.4649 18.6583 26.2959C18.6583 26.0931 18.8267 25.9579 18.9951 25.9579H20.0728L19.2308 22.984H14.9535L15.7955 25.9579H16.9069C17.109 25.9579 17.2437 26.1269 17.2437 26.2959C17.2437 26.4987 17.0753 26.6338 16.9069 26.6338H15.9976L16.8059 29.6077ZM30.7493 25.9579H35.0266L33.1742 19.3343H28.8632L30.7493 25.9579Z" fill="#D5DAE8"/>
<path d="M19.7023 21.0241C19.2645 21.7 19.0624 22.5111 19.1298 23.3222C19.1635 24.0994 19.4666 24.8767 19.9381 25.5188C20.4096 26.1271 21.0832 26.634 21.8241 26.8368C22.5651 27.0733 23.3734 27.0395 24.1144 26.8368C24.8216 26.6002 25.4615 26.1271 25.7983 25.485C26.1351 24.8429 26.1688 24.0656 25.832 23.4573C25.5289 22.8152 24.889 22.3421 24.1817 22.0718C23.4744 21.7676 22.6661 21.6324 21.8578 21.5986C21.5547 21.5986 21.3526 21.3283 21.3526 21.0579C21.3526 20.7538 21.6221 20.551 21.8915 20.551C22.8008 20.6186 23.7102 20.7538 24.5522 21.1255C25.3942 21.4973 26.2362 22.1056 26.674 23.0518C26.8761 23.4911 27.0108 24.0318 26.9771 24.5388C26.9434 25.0457 26.8087 25.5526 26.573 25.9581C26.1014 26.8368 25.2595 27.4451 24.3501 27.7154C23.4408 27.9858 22.4641 27.952 21.5884 27.6478C20.7127 27.3437 19.9381 26.7354 19.3992 25.9919C18.8603 25.2484 18.5572 24.336 18.5235 23.4235C18.4899 22.5111 18.793 21.5649 19.2982 20.8214C19.3655 20.72 19.5339 20.6862 19.6686 20.7538C19.736 20.7538 19.7697 20.9228 19.7023 21.0241Z" fill="url(#paint1_linear)"/>
<g filter="url(#filter0_d)">
<path d="M43.628 36.7442C43.5859 36.8714 43.5859 36.9986 43.5437 37.1683C42.7853 40.0092 40.594 42.0871 37.8972 42.7655C36.8016 43.0623 35.6218 43.0624 34.4419 42.8504C30.2281 41.9599 27.5312 37.8043 28.4161 33.6065C29.301 29.3662 33.3884 26.6525 37.6022 27.5429C39.0771 27.8397 40.4676 28.603 41.5211 29.6631C43.3752 31.4864 44.1758 34.1576 43.628 36.7442Z" fill="url(#paint2_linear)"/>
</g>
<path d="M43.5378 37.1217C42.7793 39.9627 40.5881 42.0405 37.8913 42.7189L33.4668 38.2666L34.3096 37.461L37.1328 37.1641L38.5234 33.5175L37.5542 32.6694L39.2818 32.9239L43.5378 37.1217Z" fill="url(#paint3_linear)"/>
<path d="M39.3038 32.9106C38.9666 32.4866 38.5453 32.1473 38.0818 31.8929C37.8711 31.7657 37.5761 31.8505 37.4497 32.1049C37.3233 32.3169 37.4075 32.6138 37.6604 32.741C38.0396 32.9106 38.3346 33.165 38.5874 33.5042C38.756 33.7162 39.0509 33.7586 39.2616 33.589C39.4302 33.377 39.4723 33.0802 39.3038 32.9106Z" fill="url(#paint4_linear)"/>
<path d="M33.4468 33.5043C33.6996 33.1651 34.0367 32.8683 34.416 32.6987C34.6267 32.5715 34.711 32.2746 34.5845 32.0626C34.4581 31.8506 34.1632 31.7658 33.9525 31.893C33.489 32.1474 33.0676 32.5291 32.7305 32.9531C32.5619 33.1651 32.6041 33.4619 32.8147 33.5891C32.9833 33.7587 33.2783 33.7163 33.4468 33.5043Z" fill="url(#paint5_linear)"/>
<path d="M38.1243 37.4906C39.2199 36.3457 39.1777 34.48 37.9979 33.3775C37.6186 33.0383 37.1973 32.7839 36.7337 32.6567C36.2702 32.5295 35.7646 32.5295 35.301 32.6567C33.7419 33.0383 32.8149 34.6496 33.1941 36.1761C33.3206 36.6426 33.5734 37.109 33.9105 37.4906L33.5312 37.8722C33.4048 37.9995 33.4048 38.2115 33.5312 38.3387C33.6577 38.4659 33.8683 38.4659 33.9526 38.3387L34.374 37.9146C34.669 38.0843 34.9639 38.2539 35.2589 38.3387C35.7224 38.4659 36.2281 38.4659 36.6916 38.3387C37.0287 38.2539 37.3237 38.1267 37.5765 37.9146L37.9979 38.3387C38.1243 38.4659 38.335 38.4659 38.4614 38.3387C38.5878 38.2115 38.5878 37.9995 38.4614 37.8722L38.1243 37.4906ZM36.9866 36.1337C36.9444 36.2185 36.818 36.3033 36.6916 36.3033C36.6495 36.3033 36.5652 36.3033 36.523 36.2609L35.7646 35.7945C35.6803 35.7521 35.596 35.6249 35.596 35.5401V33.9712C35.596 33.8016 35.7224 33.632 35.9331 33.6744C36.1017 33.6744 36.2281 33.8016 36.2281 33.9712V35.3705L36.8602 35.7097C37.0287 35.7945 37.0708 35.9641 36.9866 36.1337Z" fill="url(#paint6_linear)"/>

</svg>
