<svg width="92" height="24" viewBox="0 0 92 24" fill="none" xmlns="http://www.w3.org/2000/svg">
<path d="M40.4297 18H42.2812L38.2109 6.72656H36.3203L32.25 18H34.0703L35.1016 14.9531H39.3984L40.4297 18ZM37.2266 8.60156H37.2734L38.9531 13.5469H35.5469L37.2266 8.60156ZM47.7266 9.42969C46.5469 9.42969 45.5 10.0078 45.0234 10.9219H44.9844V9.51562H43.3516V20.8125H45.0469V16.6094H45.0781C45.5859 17.5469 46.5469 18.0859 47.7656 18.0859C49.8984 18.0859 51.3125 16.3828 51.3125 13.7578C51.3125 11.125 49.8906 9.42969 47.7266 9.42969ZM47.2969 16.6484C45.9453 16.6484 45.0391 15.4922 45.0312 13.7578C45.0391 12.0312 45.9531 10.8672 47.2969 10.8672C48.6719 10.8672 49.5781 12.0078 49.5781 13.7578C49.5781 15.5156 48.6719 16.6484 47.2969 16.6484ZM57.0391 9.42969C55.8594 9.42969 54.8125 10.0078 54.3359 10.9219H54.2969V9.51562H52.6641V20.8125H54.3594V16.6094H54.3906C54.8984 17.5469 55.8594 18.0859 57.0781 18.0859C59.2109 18.0859 60.625 16.3828 60.625 13.7578C60.625 11.125 59.2031 9.42969 57.0391 9.42969ZM56.6094 16.6484C55.2578 16.6484 54.3516 15.4922 54.3438 13.7578C54.3516 12.0312 55.2656 10.8672 56.6094 10.8672C57.9844 10.8672 58.8906 12.0078 58.8906 13.7578C58.8906 15.5156 57.9844 16.6484 56.6094 16.6484ZM62.0469 18H63.7422V6.21875H62.0469V18ZM69.0859 10.7891C70.3203 10.7891 71.1562 11.6641 71.1953 12.9844H66.8906C66.9844 11.6797 67.8672 10.7891 69.0859 10.7891ZM71.1875 15.5156C70.9531 16.2578 70.1797 16.7266 69.1953 16.7266C67.8047 16.7266 66.8828 15.7578 66.8828 14.2891V14.1875H72.8906V13.5938C72.8906 11.0234 71.4219 9.40625 69.0938 9.40625C66.7188 9.40625 65.1719 11.1328 65.1719 13.7891C65.1719 16.4453 66.7031 18.1016 69.1641 18.1016C71.0703 18.1016 72.5625 17.0391 72.8047 15.5156H71.1875ZM79.8672 18V6.72656H78.1172V18H79.8672ZM81.9453 6.72656V18H85.9844C89.3438 18 91.3203 15.9062 91.3203 12.3438C91.3203 8.78906 89.3438 6.72656 85.9844 6.72656H81.9453ZM83.6953 8.23438H85.8203C88.2109 8.23438 89.5391 9.70312 89.5391 12.3594C89.5391 15.0234 88.2109 16.4844 85.8203 16.4844H83.6953V8.23438Z" fill="#2F3137"/>
<g clip-path="url(#clip0)">
<path d="M16.4989 0C15.2194 0.0884995 13.7239 0.907495 12.8524 1.97399C12.0574 2.94148 11.4034 4.37847 11.6584 5.77497C13.0564 5.81847 14.5009 4.97997 15.3379 3.89548C16.1209 2.88598 16.7134 1.45799 16.4989 0Z" fill="black"/>
<path d="M21.5554 8.05192C20.327 6.51143 18.6005 5.61743 16.97 5.61743C14.8175 5.61743 13.907 6.64793 12.4115 6.64793C10.8695 6.64793 9.69801 5.62043 7.83652 5.62043C6.00803 5.62043 4.06105 6.73793 2.82655 8.64892C1.09106 11.3399 1.38806 16.3994 4.20055 20.7089C5.20704 22.2509 6.55103 23.9849 8.30902 23.9999C9.87351 24.0149 10.3145 22.9964 12.434 22.9859C14.5535 22.9739 14.9555 24.0134 16.517 23.9969C18.2765 23.9834 19.694 22.0619 20.7004 20.5199C21.4219 19.4144 21.6904 18.8579 22.2499 17.6099C18.1805 16.0604 17.528 10.2734 21.5554 8.05192Z" fill="black"/>
</g>
<defs>
<clipPath id="clip0">
<rect width="24" height="24" fill="white"/>
</clipPath>
</defs>
</svg>
