<svg width="80" height="24" viewBox="0 0 80 24" fill="none" xmlns="http://www.w3.org/2000/svg">
<path d="M7.54618 13.6689L6.98925 15.748L4.95365 15.7911C4.34531 14.6627 4.00024 13.3718 4.00024 11.9999C4.00024 10.6733 4.32287 9.42232 4.89474 8.3208H4.89518L6.70743 8.65305L7.50131 10.4544C7.33515 10.9388 7.24459 11.4588 7.24459 11.9999C7.24465 12.5871 7.35103 13.1498 7.54618 13.6689Z" fill="#FBBB00"/>
<path d="M19.8606 10.5054C19.9525 10.9893 20.0004 11.4891 20.0004 11.9999C20.0004 12.5726 19.9402 13.1313 19.8255 13.6702C19.436 15.504 18.4184 17.1053 17.0088 18.2385L17.0083 18.2381L14.7257 18.1216L14.4026 16.1049C15.338 15.5563 16.069 14.6979 16.4541 13.6702H12.1763V10.5054H16.5165H19.8606Z" fill="#518EF8"/>
<path d="M17.008 18.2381L17.0084 18.2386C15.6375 19.3405 13.8959 19.9999 12.0001 19.9999C8.95349 19.9999 6.30471 18.297 4.95349 15.7911L7.54602 13.6689C8.22162 15.472 9.96096 16.7555 12.0001 16.7555C12.8766 16.7555 13.6977 16.5186 14.4023 16.105L17.008 18.2381Z" fill="#28B446"/>
<path d="M17.1068 5.84174L14.5151 7.96347C13.7859 7.50766 12.9239 7.24435 12.0004 7.24435C9.91512 7.24435 8.14324 8.58675 7.50149 10.4544L4.89533 8.32084H4.8949C6.22634 5.75383 8.90853 4 12.0004 4C13.9415 4 15.7213 4.69143 17.1068 5.84174Z" fill="#F14336"/>
<path d="M39.2422 12.3125V11.1641H34.6016V12.5781H37.5156V12.7734C37.4922 14.4844 36.2266 15.6562 34.3984 15.6562C32.25 15.6562 30.9141 13.9922 30.9141 11.2969C30.9141 8.64844 32.2109 7.07031 34.3672 7.07031C35.8359 7.07031 36.9375 7.875 37.3594 9.27344H39.1562C38.7656 7.02344 36.8672 5.53906 34.3594 5.53906C31.1484 5.53906 29.125 7.75781 29.125 11.3125C29.125 14.9297 31.1562 17.1875 34.3828 17.1875C37.4375 17.1875 39.2422 15.3672 39.2422 12.3125ZM44.4141 17.1016C46.8672 17.1016 48.4219 15.4297 48.4219 12.7578C48.4219 10.0859 46.8594 8.40625 44.4141 8.40625C41.9688 8.40625 40.3984 10.0938 40.3984 12.7578C40.3984 15.4297 41.9609 17.1016 44.4141 17.1016ZM44.4141 15.6953C42.9766 15.6953 42.1172 14.6094 42.1172 12.7578C42.1172 10.9141 42.9766 9.8125 44.4141 9.8125C45.8516 9.8125 46.7031 10.9062 46.7031 12.7578C46.7031 14.6094 45.8516 15.6953 44.4141 15.6953ZM53.4141 17.1016C55.8672 17.1016 57.4219 15.4297 57.4219 12.7578C57.4219 10.0859 55.8594 8.40625 53.4141 8.40625C50.9688 8.40625 49.3984 10.0938 49.3984 12.7578C49.3984 15.4297 50.9609 17.1016 53.4141 17.1016ZM53.4141 15.6953C51.9766 15.6953 51.1172 14.6094 51.1172 12.7578C51.1172 10.9141 51.9766 9.8125 53.4141 9.8125C54.8516 9.8125 55.7031 10.9062 55.7031 12.7578C55.7031 14.6094 54.8516 15.6953 53.4141 15.6953ZM62.3828 15.5703C61.0156 15.5703 60.1328 14.4688 60.1328 12.7344C60.1328 10.9922 61.0156 9.86719 62.3828 9.86719C63.7578 9.86719 64.6719 11.0156 64.6719 12.7344C64.6719 14.4453 63.7578 15.5703 62.3828 15.5703ZM62.3906 20.0547C64.8359 20.0547 66.3594 18.8047 66.3594 16.7812V8.51562H64.7188V9.92188H64.6875C64.1641 8.98438 63.1797 8.42969 61.9766 8.42969C59.8047 8.42969 58.3984 10.1094 58.3984 12.7266C58.3984 15.3125 59.8203 16.9766 61.9375 16.9766C63.1406 16.9766 64.1406 16.4297 64.6328 15.5156H64.6719V16.9141C64.6719 18.0234 63.8047 18.7266 62.4609 18.7266C61.4219 18.7266 60.6328 18.3125 60.4453 17.6562H58.7344C58.8984 19.1094 60.3516 20.0547 62.3906 20.0547ZM68.1641 17H69.8594V5.21875H68.1641V17ZM75.2031 9.78906C76.4375 9.78906 77.2734 10.6641 77.3125 11.9844H73.0078C73.1016 10.6797 73.9844 9.78906 75.2031 9.78906ZM77.3047 14.5156C77.0703 15.2578 76.2969 15.7266 75.3125 15.7266C73.9219 15.7266 73 14.7578 73 13.2891V13.1875H79.0078V12.5938C79.0078 10.0234 77.5391 8.40625 75.2109 8.40625C72.8359 8.40625 71.2891 10.1328 71.2891 12.7891C71.2891 15.4453 72.8203 17.1016 75.2812 17.1016C77.1875 17.1016 78.6797 16.0391 78.9219 14.5156H77.3047Z" fill="#2F3137"/>
</svg>
