<svg width="36" height="36" viewBox="0 0 36 36" fill="none" xmlns="http://www.w3.org/2000/svg">
<defs>
<linearGradient id="paint0_linear" x1="2" y1="2" x2="34" y2="34" gradientUnits="userSpaceOnUse">
<stop stop-color="#F96289"/>
<stop offset="1" stop-color="#3F5EFB"/>
</linearGradient>
</defs>
<circle cx="18" cy="18" r="16" fill="url(#paint0_linear)" stroke="white" stroke-width="3"/>
<path fill-rule="evenodd" clip-rule="evenodd" d="M17.9999 12.6667C18.3681 12.6667 18.6666 12.9652 18.6666 13.3334V22.6667C18.6666 23.0349 18.3681 23.3334 17.9999 23.3334C17.6317 23.3334 17.3333 23.0349 17.3333 22.6667V13.3334C17.3333 12.9652 17.6317 12.6667 17.9999 12.6667Z" fill="white"/>
<path fill-rule="evenodd" clip-rule="evenodd" d="M12.6667 17.9999C12.6667 17.6317 12.9652 17.3333 13.3334 17.3333H22.6667C23.0349 17.3333 23.3334 17.6317 23.3334 17.9999C23.3334 18.3681 23.0349 18.6666 22.6667 18.6666H13.3334C12.9652 18.6666 12.6667 18.3681 12.6667 17.9999Z" fill="white"/>
</svg>
