<svg width="20" height="18" viewBox="0 0 20 18" fill="none" xmlns="http://www.w3.org/2000/svg">
<path fill-rule="evenodd" clip-rule="evenodd" d="M16.6997 4.61391C15.5281 3.44233 13.6286 3.44233 12.4571 4.61391L6.80022 10.2707C6.40969 10.6612 6.40969 11.2944 6.80022 11.6849C7.19074 12.0755 7.82391 12.0755 8.2144 11.6849L13.8713 6.02812C14.2618 5.63759 14.895 5.63759 15.2855 6.02812C15.676 6.41864 15.676 7.05184 15.2855 7.44234L9.6286 13.0991C8.4571 14.2707 6.55758 14.2707 5.386 13.0991C4.21443 11.9276 4.21443 10.0281 5.386 8.85654L11.0429 3.19969C12.9955 1.24707 16.1613 1.24707 18.1139 3.19969C20.0665 5.15231 20.0665 8.31814 18.1139 10.2707L12.4571 15.9276C9.7234 18.6612 5.29125 18.6612 2.55758 15.9276C-0.176093 13.1939 -0.176093 8.76174 2.55758 6.02812L8.2144 0.371259C8.605 -0.0192609 9.2381 -0.0192609 9.6286 0.371259C10.0192 0.761789 10.0192 1.39495 9.6286 1.78548L3.97179 7.44234C2.01917 9.39494 2.01917 12.5607 3.97179 14.5134C5.92441 16.466 9.0902 16.466 11.0429 14.5134L16.6997 8.85654C17.8713 7.68494 17.8713 5.78548 16.6997 4.61391Z" fill="#F96289"/>
</svg>
