<svg width="16" height="16" viewBox="0 0 16 16" fill="none" xmlns="http://www.w3.org/2000/svg">
<path d="M1.33325 4.66634C1.33325 3.56177 2.22869 2.66634 3.33325 2.66634H4.66659L4.78047 2.43858C5.11925 1.76101 5.81178 1.33301 6.56932 1.33301H9.43052C10.1881 1.33301 10.8806 1.76101 11.2194 2.43858L11.3333 2.66634H12.6666C13.7712 2.66634 14.6666 3.56177 14.6666 4.66634V11.333C14.6666 12.4376 13.7712 13.333 12.6666 13.333H3.33325C2.22869 13.333 1.33325 12.4376 1.33325 11.333V4.66634Z" fill="white"/>
<path fill-rule="evenodd" clip-rule="evenodd" d="M7.99992 10.6663C9.47265 10.6663 10.6666 9.47241 10.6666 7.99967C10.6666 6.52691 9.47265 5.33301 7.99992 5.33301C6.52716 5.33301 5.33325 6.52691 5.33325 7.99967C5.33325 9.47241 6.52716 10.6663 7.99992 10.6663Z" fill="#8AC185"/>
<path d="M11.9999 6.00033C12.3681 6.00033 12.6666 5.70185 12.6666 5.33366C12.6666 4.96547 12.3681 4.66699 11.9999 4.66699C11.6317 4.66699 11.3333 4.96547 11.3333 5.33366C11.3333 5.70185 11.6317 6.00033 11.9999 6.00033Z" fill="#8AC185"/>
</svg>
