<svg width="24" height="24" viewBox="0 0 24 24" fill="none" xmlns="http://www.w3.org/2000/svg">
<g clip-path="url(#clip0)">
<path d="M19.5294 7.17213H10.8706L9.14824 5.12507C9.09029 5.05542 9.00347 5.01636 8.91294 5.01919H1.92706C0.86047 5.02695 0 5.89377 0 6.96036V19.551C0.00129412 20.6212 0.868588 21.4885 1.93882 21.4898H19.5294C20.5996 21.4885 21.4669 20.6212 21.4682 19.551V9.11095C21.4669 8.04072 20.5996 7.17342 19.5294 7.17213Z" fill="#8AC185"/>
<path d="M22.073 4.66334H13.4118L11.6895 2.61628C11.6315 2.54663 11.5447 2.50757 11.4542 2.5104H4.47063C3.50286 2.51199 2.68451 3.22693 2.55298 4.18569H8.92239C9.25639 4.18487 9.57351 4.33228 9.78827 4.58804L11.2589 6.33628H19.5295C21.0592 6.33887 22.2986 7.57834 22.3012 9.10804V18.9622C23.2711 18.8412 23.9993 18.0172 24 17.0398V6.59981C23.9975 5.53504 23.1377 4.6711 22.073 4.66334Z" fill="#7768D8"/>
</g>
<defs>
<clipPath id="clip0">
<rect width="24" height="24" fill="white"/>
</clipPath>
</defs>
</svg>
