<svg width="178" height="178" viewBox="0 0 178 178" fill="none" xmlns="http://www.w3.org/2000/svg">
<circle cx="89" cy="89" r="84" stroke="#8AC185" stroke-width="10"/>
<path d="M88.9999 5C135.392 5 173 42.6081 173 89C173 135.392 135.392 173 88.9999 173C55.4912 173 26.5651 153.379 13.0835 125" stroke="#8AC185" stroke-width="10" stroke-linecap="round"/>
<path d="M42.7217 104H50.207V74.4072H42.7012L35.1748 79.5342V86.0146L42.5781 81.0107H42.7217V104ZM68.6436 104.738C76.375 104.738 81.1533 98.791 81.1533 89.1318C81.1533 79.4111 76.3135 73.6484 68.6436 73.6484C60.9531 73.6484 56.0928 79.4316 56.0928 89.1523C56.0928 98.832 60.8916 104.738 68.6436 104.738ZM68.6436 98.873C65.6904 98.873 63.7422 95.5303 63.7422 89.1318C63.7422 82.7744 65.7109 79.5137 68.6436 79.5137C71.5762 79.5137 73.5039 82.7539 73.5039 89.1523C73.5039 95.5508 71.5762 98.873 68.6436 98.873ZM96.9443 104.738C104.676 104.738 109.454 98.791 109.454 89.1318C109.454 79.4111 104.614 73.6484 96.9443 73.6484C89.2539 73.6484 84.3936 79.4316 84.3936 89.1523C84.3936 98.832 89.1924 104.738 96.9443 104.738ZM96.9443 98.873C93.9912 98.873 92.043 95.5303 92.043 89.1318C92.043 82.7744 94.0117 79.5137 96.9443 79.5137C99.877 79.5137 101.805 82.7539 101.805 89.1523C101.805 95.5508 99.877 98.873 96.9443 98.873ZM144.666 96.6377C144.666 91.8389 142 88.8857 137.632 88.8857C133.284 88.8857 130.598 91.8594 130.598 96.6377C130.598 101.457 133.325 104.492 137.632 104.492C141.959 104.492 144.666 101.457 144.666 96.6377ZM137.632 100.329C136.545 100.329 135.889 98.9141 135.889 96.6582C135.889 94.3818 136.524 93.0693 137.632 93.0693C138.76 93.0693 139.396 94.3613 139.396 96.6377C139.396 98.9346 138.739 100.329 137.632 100.329ZM126.004 81.0928C126.004 76.2939 123.338 73.3408 118.97 73.3408C114.622 73.3408 111.936 76.3145 111.936 81.0928C111.936 85.9121 114.663 88.9473 118.97 88.9473C123.297 88.9473 126.004 85.9121 126.004 81.0928ZM118.97 84.7842C117.883 84.7842 117.227 83.3691 117.227 81.1133C117.227 78.8369 117.862 77.5244 118.97 77.5244C120.098 77.5244 120.733 78.8164 120.733 81.0928C120.733 83.3896 120.077 84.7842 118.97 84.7842ZM120.364 104L141.918 74.4072H135.766L114.191 104H120.364Z" fill="#8AC185"/>
</svg>
