<svg width="24" height="24" viewBox="0 0 24 24" fill="none" xmlns="http://www.w3.org/2000/svg">
<path fill-rule="evenodd" clip-rule="evenodd" d="M12 11C10.667 11 10 10.333 10 9C10 7.667 10.667 7 12 7C13.333 7 14 7.667 14 9C14 10.333 13.333 11 12 11Z" fill="white"/>
<path d="M9 14C9 14 9.75 13 12 13C14.25 13 15 14 15 14" stroke="white" stroke-width="2" stroke-linecap="round" stroke-linejoin="round"/>
<path d="M10.3604 17.9405C5.75937 17.6205 5.00037 15.7405 5.00037 11.0005C5.00037 5.75049 5.92937 4.00049 12.0004 4.00049C18.0704 4.00049 19.0004 5.75049 19.0004 11.0005C19.0004 15.7405 18.2404 17.6205 13.6394 17.9405" stroke="white" stroke-width="2" stroke-linecap="round" stroke-linejoin="round"/>
<path d="M10.3496 17.9404H10.3606L11.9996 20.0004L13.6396 17.9404H13.6506" stroke="white" stroke-width="2" stroke-linecap="round" stroke-linejoin="round"/>
</svg>
