<svg width="140" height="143" viewBox="0 0 140 143" fill="none" xmlns="http://www.w3.org/2000/svg">
<circle cx="70" cy="73" r="70" fill="#ECF0FF"/>
<mask id="mask0" mask-type="alpha" maskUnits="userSpaceOnUse" x="0" y="3" width="140" height="140">
<circle cx="70" cy="73" r="70" fill="#F5F5F5"/>
</mask>
<g mask="url(#mask0)">
<path opacity="0.77" d="M134.706 64.3237V86.7481C134.706 90.8526 131.382 94.1719 127.282 94.1719H33.2973C29.1927 94.1719 25.8735 90.8477 25.8735 86.7481V84.1302C27.0442 81.5618 28.684 79.1515 30.798 77.0424L44.5885 63.2567L50.9454 56.8999H127.282C131.382 56.8999 134.706 60.229 134.706 64.3237Z" fill="white"/>
<path opacity="0.77" d="M147.613 77.2001V102.815C147.613 107.127 144.116 110.624 139.804 110.624H46.5844C42.2724 110.624 38.7754 107.127 38.7754 102.815V77.2001C38.7754 72.888 42.2724 69.3911 46.5844 69.3911H139.804C144.116 69.3911 147.613 72.888 147.613 77.2001Z" fill="#ECF0FF"/>
<path d="M127.396 71.6385V94.063C127.396 98.1627 124.072 101.487 119.972 101.487H25.9824C21.8827 101.487 18.5586 98.1627 18.5586 94.063V71.6385C18.5586 67.5389 21.8827 64.2148 25.9824 64.2148H119.972C124.072 64.2148 127.396 67.5389 127.396 71.6385Z" fill="#8AC185"/>
<path d="M140.298 84.5107V110.126C140.298 114.438 136.8 117.935 132.488 117.935H39.269C34.957 117.935 31.46 114.438 31.46 110.126V84.5107C31.46 80.1987 34.957 76.7017 39.269 76.7017H132.488C136.805 76.7066 140.298 80.1987 140.298 84.5107Z" fill="#7768D8"/>
<path d="M128.329 92.5864V104.347C128.329 105.285 127.569 106.051 126.625 106.051H114.865C113.926 106.051 113.161 105.29 113.161 104.347V92.5864C113.161 91.6479 113.921 90.8823 114.865 90.8823H126.625C127.569 90.8823 128.329 91.643 128.329 92.5864Z" fill="white"/>
<path d="M62.1778 99.4073C62.1778 105.112 57.5546 109.74 51.8447 109.74C46.1398 109.74 41.5117 105.117 41.5117 99.4073C41.5117 98.2021 41.7192 97.0462 42.0995 95.9694C43.2306 92.7589 45.9077 90.2745 49.2368 89.4101C50.0715 89.1928 50.9408 89.0791 51.8398 89.0791C52.7486 89.0791 53.6229 89.1927 54.4626 89.4149C57.7966 90.2843 60.4688 92.7786 61.5949 95.9991C61.9703 97.066 62.1778 98.212 62.1778 99.4073Z" fill="white"/>
<path d="M46.6091 88.0668C44.2432 89.0052 42.307 90.7983 41.1759 93.0605C40.9289 93.5593 40.1979 93.5247 40.0053 93.0061C39.3632 91.2724 39.7336 89.2522 41.1265 87.8594C42.6231 86.3627 44.8507 86.0417 46.6585 86.9012C47.1574 87.1382 47.1228 87.8643 46.6091 88.0668Z" fill="white"/>
<path d="M62.5331 93.1095C61.407 90.8226 59.4609 89.0148 57.0752 88.0664C56.5615 87.8639 56.5269 87.1478 57.0209 86.9008C58.8385 86.0068 61.1007 86.313 62.6121 87.8293C64.0297 89.2469 64.3903 91.3116 63.6988 93.065C63.5012 93.5787 62.7801 93.6084 62.5331 93.1095Z" fill="white"/>
<path d="M62.5231 111.76C61.8168 112.467 60.6758 112.467 59.9695 111.76L58.0679 109.859L58.7199 109.207C59.7719 108.154 61.476 108.154 62.528 109.207C63.2245 109.908 63.2245 111.054 62.5231 111.76Z" fill="white"/>
<path d="M41.1314 111.76C41.8378 112.467 42.9788 112.467 43.6851 111.76L45.5867 109.859L44.9347 109.207C43.8826 108.154 42.1786 108.154 41.1265 109.207C40.4251 109.908 40.4251 111.054 41.1314 111.76Z" fill="white"/>
<path d="M100.244 99.047H70.1292C68.9635 99.047 68.0151 98.0938 68.0151 96.9331V94.1472C68.0151 92.9816 68.9684 92.0332 70.1292 92.0332H100.244C101.41 92.0332 102.358 92.9865 102.358 94.1472V96.9331C102.363 98.0988 101.41 99.047 100.244 99.047Z" fill="white"/>
</g>
<g filter="url(#filter0_d)">
<path d="M128 24.6859C128 26.4208 127.747 28.0317 127.368 29.6427C127.115 30.634 126.862 31.5014 126.483 32.3689C124.333 37.8213 119.908 42.2824 114.345 44.513C114.218 44.6369 114.092 44.6369 113.966 44.6369C113.586 44.7608 113.207 44.8847 112.701 45.0086C110.552 45.7522 108.276 46 106 46C93.8621 46 84 36.3343 84 24.438C84 12.5418 93.8621 3 106 3C118.138 3.12392 128 12.7896 128 24.6859Z" fill="#8AC185"/>
</g>
<path d="M127.368 29.6421C127.115 30.6334 126.862 31.5009 126.483 32.3683C124.334 37.8207 119.908 42.2818 114.345 44.5124L102.081 32.4922L100.437 30.8813L112.575 20.2242L116.621 17.9937L127.368 28.5268V29.6421Z" fill="#8AC185"/>
<path d="M103.724 33.112C103.092 33.112 102.46 32.8642 101.954 32.3685L96.8968 27.4118C95.8853 26.4204 95.8853 24.8095 96.8968 23.8181C97.9083 22.8267 99.552 22.8267 100.563 23.8181L103.724 26.9161L112.954 17.87C113.966 16.8786 115.609 16.8786 116.621 17.87C117.632 18.8613 117.632 20.4723 116.621 21.4636L105.621 32.3685C105.115 32.8642 104.357 33.112 103.724 33.112Z" fill="#FAFBFF"/>
<defs>
<filter id="filter0_d" x="76" y="0" width="60" height="59" filterUnits="userSpaceOnUse" color-interpolation-filters="sRGB">
<feFlood flood-opacity="0" result="BackgroundImageFix"/>
<feColorMatrix in="SourceAlpha" type="matrix" values="0 0 0 0 0 0 0 0 0 0 0 0 0 0 0 0 0 0 127 0"/>
<feOffset dy="5"/>
<feGaussianBlur stdDeviation="4"/>
<feColorMatrix type="matrix" values="0 0 0 0 0.247059 0 0 0 0 0.368627 0 0 0 0 0.984314 0 0 0 0.1 0"/>
<feBlend mode="normal" in2="BackgroundImageFix" result="effect1_dropShadow"/>
<feBlend mode="normal" in="SourceGraphic" in2="effect1_dropShadow" result="shape"/>
</filter>
</defs>
</svg>
