<svg width="140" height="140" viewBox="0 0 140 140" fill="none" xmlns="http://www.w3.org/2000/svg">
<circle cx="70" cy="70" r="70" fill="#ECF0FF"/>
<mask id="mask0" mask-type="alpha" maskUnits="userSpaceOnUse" x="0" y="0" width="140" height="140">
<circle cx="70" cy="70" r="70" fill="#ECF0FF"/>
</mask>
<g mask="url(#mask0)">
<g clip-path="url(#clip0)">
<path d="M96.9812 46.3574H43.0542C37.1059 46.3574 32.2688 51.1945 32.2688 57.1428V78.7136C32.2688 84.6619 37.1059 89.499 43.0542 89.499H62.3868L66.1285 93.1934C67.1028 94.273 68.5194 94.8917 70.0177 94.8917C71.516 94.8917 72.9326 94.273 73.8016 93.3039L77.6512 89.499H96.9812C102.93 89.499 107.767 84.6619 107.767 78.7136V57.1428C107.767 51.1945 102.93 46.3574 96.9812 46.3574ZM75.4104 97.5881H64.625C63.4388 97.5881 62.4142 98.343 62.0906 99.4214C56.3571 116.733 56.5359 115.781 56.5359 116.463H83.4994C83.4994 115.774 83.6517 116.653 77.9448 99.4214C77.6212 98.343 76.5966 97.5881 75.4104 97.5881Z" fill="url(#paint0_linear)"/>
<path d="M74.3319 63.722L72.7141 64.2076V62.5358C72.7141 61.0257 71.5278 59.8395 70.0177 59.8395C68.5076 59.8395 67.3214 61.0257 67.3214 62.5358V64.2076L65.7035 63.722C64.3014 63.2369 62.7913 63.9917 62.3061 65.4477C61.8745 66.8498 62.6297 68.3596 64.0318 68.8451L65.6496 69.3306L64.6789 70.7324C63.8159 71.9189 64.0857 73.5907 65.2721 74.4533C66.4152 75.3422 68.141 75.1283 69.047 73.8601L70.0177 72.512L70.9884 73.8601C71.8944 75.1283 73.6202 75.3422 74.7633 74.4533C75.9495 73.5907 76.2195 71.9189 75.3565 70.7324L74.3858 69.3306L76.0036 68.8451C77.4057 68.3596 78.1609 66.8498 77.7293 65.4477C77.2441 63.9917 75.734 63.2369 74.3319 63.722ZM113.339 32.876H26.6963C25.1862 32.876 24 34.0622 24 35.5723V100.285C24 101.794 25.1862 102.981 26.6963 102.981H113.339C114.849 102.981 116.035 101.794 116.035 100.285V35.5723C116.035 34.0622 114.849 32.876 113.339 32.876ZM105.07 78.7139C105.07 83.1895 101.457 86.803 96.9812 86.803H76.543L71.9051 91.3866C71.4198 91.926 70.7188 92.1957 70.0177 92.1957C69.3167 92.1957 68.6156 91.926 68.1304 91.3866L63.4924 86.803H43.0542C38.5781 86.803 34.9652 83.1895 34.9652 78.7139V57.1431C34.9652 52.6672 38.5781 49.0541 43.0542 49.0541H96.9812C101.457 49.0541 105.07 52.6672 105.07 57.1431V78.7139ZM58.1538 63.722L56.536 64.2076V62.5358C56.536 61.0257 55.3497 59.8395 53.8396 59.8395C52.3295 59.8395 51.1433 61.0257 51.1433 62.5358V64.2076L49.5254 63.722C48.1233 63.2369 46.6132 63.9917 46.128 65.4477C45.6964 66.8498 46.4516 68.3596 47.8537 68.8451L49.4715 69.3306L48.5008 70.7324C47.6378 71.9189 47.9076 73.5907 49.094 74.4533C50.2371 75.3422 51.9629 75.1283 52.8689 73.8601L53.8396 72.512L54.8103 73.8601C55.7163 75.1283 57.4421 75.3422 58.5852 74.4533C59.7714 73.5907 60.0414 71.9189 59.1784 70.7324L58.2077 69.3306L59.8255 68.8451C61.2276 68.3596 61.9828 66.8498 61.5512 65.4477C61.066 63.9917 59.5559 63.2369 58.1538 63.722ZM90.51 63.722L88.8922 64.2076V62.5358C88.8922 61.0257 87.7059 59.8395 86.1958 59.8395C84.6857 59.8395 83.4994 61.0257 83.4994 62.5358V64.2076L81.8816 63.722C80.4795 63.2369 78.9694 63.9917 78.4842 65.4477C78.0526 66.8498 78.8078 68.3596 80.2099 68.8451L81.8277 69.3306L80.857 70.7324C79.994 71.9189 80.2638 73.5907 81.4502 74.4533C82.5933 75.3422 84.3191 75.1283 85.2251 73.8601L86.1958 72.512L87.1665 73.8601C88.0725 75.1283 89.7983 75.3422 90.9414 74.4533C92.1276 73.5907 92.3976 71.9189 91.5346 70.7324L90.5639 69.3306L92.1817 68.8451C93.5838 68.3596 94.339 66.8498 93.9074 65.4477C93.4222 63.9917 91.9121 63.2369 90.51 63.722ZM91.5885 113.766H48.4469C46.9565 113.766 45.7506 114.972 45.7506 116.463C45.7506 117.953 46.9565 119.159 48.4469 119.159H91.5885C93.0789 119.159 94.2848 117.953 94.2848 116.463C94.2848 114.972 93.0789 113.766 91.5885 113.766Z" fill="#8AC185"/>
</g>
</g>
<defs>
<linearGradient id="paint0_linear" x1="70.0177" y1="116.463" x2="70.0177" y2="46.3574" gradientUnits="userSpaceOnUse">
<stop stop-color="#C3FFE8"/>
<stop offset="0.9973" stop-color="#F0FFF4"/>
</linearGradient>
<clipPath id="clip0">
<rect width="92.0354" height="92.0354" fill="white" transform="translate(24 30)"/>
</clipPath>
</defs>
</svg>
