<svg width="148" height="143" viewBox="0 0 148 143" fill="none" xmlns="http://www.w3.org/2000/svg">
<circle cx="70" cy="73" r="70" fill="#ECF0FF"/>
<mask id="mask0" mask-type="alpha" maskUnits="userSpaceOnUse" x="0" y="3" width="140" height="140">
<circle cx="70" cy="73" r="70" fill="#ECF0FF"/>
</mask>
<g mask="url(#mask0)">
<g clip-path="url(#clip0)">
<path d="M96.9812 49.3574H43.0542C37.1059 49.3574 32.2688 54.1945 32.2688 60.1428V81.7136C32.2688 87.6619 37.1059 92.499 43.0542 92.499H62.3868L66.1285 96.1934C67.1028 97.273 68.5194 97.8917 70.0177 97.8917C71.516 97.8917 72.9326 97.273 73.8016 96.3039L77.6512 92.499H96.9812C102.93 92.499 107.767 87.6619 107.767 81.7136V60.1428C107.767 54.1945 102.93 49.3574 96.9812 49.3574ZM75.4104 100.588H64.625C63.4388 100.588 62.4142 101.343 62.0906 102.421C56.3571 119.733 56.5359 118.781 56.5359 119.463H83.4994C83.4994 118.774 83.6517 119.653 77.9448 102.421C77.6212 101.343 76.5966 100.588 75.4104 100.588Z" fill="url(#paint0_linear)"/>
<path d="M74.3319 66.722L72.7141 67.2076V65.5358C72.7141 64.0257 71.5278 62.8395 70.0177 62.8395C68.5076 62.8395 67.3214 64.0257 67.3214 65.5358V67.2076L65.7035 66.722C64.3014 66.2369 62.7913 66.9917 62.3061 68.4477C61.8745 69.8498 62.6297 71.3596 64.0318 71.8451L65.6496 72.3306L64.6789 73.7324C63.8159 74.9189 64.0857 76.5907 65.2721 77.4533C66.4152 78.3422 68.141 78.1283 69.047 76.8601L70.0177 75.512L70.9884 76.8601C71.8944 78.1283 73.6202 78.3422 74.7633 77.4533C75.9495 76.5907 76.2195 74.9189 75.3565 73.7324L74.3858 72.3306L76.0036 71.8451C77.4057 71.3596 78.1609 69.8498 77.7293 68.4477C77.2441 66.9917 75.734 66.2369 74.3319 66.722ZM113.339 35.876H26.6963C25.1862 35.876 24 37.0622 24 38.5723V103.285C24 104.794 25.1862 105.981 26.6963 105.981H113.339C114.849 105.981 116.035 104.794 116.035 103.285V38.5723C116.035 37.0622 114.849 35.876 113.339 35.876ZM105.07 81.7139C105.07 86.1895 101.457 89.803 96.9812 89.803H76.543L71.9051 94.3866C71.4198 94.926 70.7188 95.1957 70.0177 95.1957C69.3167 95.1957 68.6156 94.926 68.1304 94.3866L63.4924 89.803H43.0542C38.5781 89.803 34.9652 86.1895 34.9652 81.7139V60.1431C34.9652 55.6672 38.5781 52.0541 43.0542 52.0541H96.9812C101.457 52.0541 105.07 55.6672 105.07 60.1431V81.7139ZM58.1538 66.722L56.536 67.2076V65.5358C56.536 64.0257 55.3497 62.8395 53.8396 62.8395C52.3295 62.8395 51.1433 64.0257 51.1433 65.5358V67.2076L49.5254 66.722C48.1233 66.2369 46.6132 66.9917 46.128 68.4477C45.6964 69.8498 46.4516 71.3596 47.8537 71.8451L49.4715 72.3306L48.5008 73.7324C47.6378 74.9189 47.9076 76.5907 49.094 77.4533C50.2371 78.3422 51.9629 78.1283 52.8689 76.8601L53.8396 75.512L54.8103 76.8601C55.7163 78.1283 57.4421 78.3422 58.5852 77.4533C59.7714 76.5907 60.0414 74.9189 59.1784 73.7324L58.2077 72.3306L59.8255 71.8451C61.2276 71.3596 61.9828 69.8498 61.5512 68.4477C61.066 66.9917 59.5559 66.2369 58.1538 66.722ZM90.51 66.722L88.8922 67.2076V65.5358C88.8922 64.0257 87.7059 62.8395 86.1958 62.8395C84.6857 62.8395 83.4994 64.0257 83.4994 65.5358V67.2076L81.8816 66.722C80.4795 66.2369 78.9694 66.9917 78.4842 68.4477C78.0526 69.8498 78.8078 71.3596 80.2099 71.8451L81.8277 72.3306L80.857 73.7324C79.994 74.9189 80.2638 76.5907 81.4502 77.4533C82.5933 78.3422 84.3191 78.1283 85.2251 76.8601L86.1958 75.512L87.1665 76.8601C88.0725 78.1283 89.7983 78.3422 90.9414 77.4533C92.1276 76.5907 92.3976 74.9189 91.5346 73.7324L90.5639 72.3306L92.1817 71.8451C93.5838 71.3596 94.339 69.8498 93.9074 68.4477C93.4222 66.9917 91.9121 66.2369 90.51 66.722ZM91.5885 116.766H48.4469C46.9565 116.766 45.7506 117.972 45.7506 119.463C45.7506 120.953 46.9565 122.159 48.4469 122.159H91.5885C93.0789 122.159 94.2848 120.953 94.2848 119.463C94.2848 117.972 93.0789 116.766 91.5885 116.766Z" fill="#8AC185"/>
</g>
</g>
<g filter="url(#filter0_d)">
<path d="M140 24.6859C140 26.4208 139.747 28.0317 139.368 29.6427C139.115 30.634 138.862 31.5014 138.483 32.3689C136.333 37.8213 131.908 42.2824 126.345 44.513C126.218 44.6369 126.092 44.6369 125.966 44.6369C125.586 44.7608 125.207 44.8847 124.701 45.0086C122.552 45.7522 120.276 46 118 46C105.862 46 96 36.3343 96 24.438C96 12.5418 105.862 3 118 3C130.138 3.12392 140 12.7896 140 24.6859Z" fill="#FED47E"/>
</g>
<path d="M139.368 29.6416C139.115 30.6329 138.862 31.5004 138.483 32.3678C136.334 37.8202 131.908 42.2813 126.345 44.5119L114.081 32.4917L112.437 30.8808L124.575 20.2237L128.621 17.9932L139.368 28.5263V29.6416Z" fill="#F7CA70"/>
<path d="M115.724 33.1116C115.092 33.1116 114.46 32.8637 113.954 32.368L108.897 27.4113C107.885 26.4199 107.885 24.809 108.897 23.8176C109.908 22.8263 111.552 22.8263 112.563 23.8176L115.724 26.9156L124.954 17.8695C125.966 16.8781 127.609 16.8781 128.621 17.8695C129.632 18.8608 129.632 20.4718 128.621 21.4631L117.621 32.368C117.115 32.8637 116.357 33.1116 115.724 33.1116Z" fill="#FAFBFF"/>
<defs>
<filter id="filter0_d" x="88" y="0" width="60" height="59" filterUnits="userSpaceOnUse" color-interpolation-filters="sRGB">
<feFlood flood-opacity="0" result="BackgroundImageFix"/>
<feColorMatrix in="SourceAlpha" type="matrix" values="0 0 0 0 0 0 0 0 0 0 0 0 0 0 0 0 0 0 127 0"/>
<feOffset dy="5"/>
<feGaussianBlur stdDeviation="4"/>
<feColorMatrix type="matrix" values="0 0 0 0 0.247059 0 0 0 0 0.368627 0 0 0 0 0.984314 0 0 0 0.1 0"/>
<feBlend mode="normal" in2="BackgroundImageFix" result="effect1_dropShadow"/>
<feBlend mode="normal" in="SourceGraphic" in2="effect1_dropShadow" result="shape"/>
</filter>
<linearGradient id="paint0_linear" x1="70.0177" y1="119.463" x2="70.0177" y2="49.3574" gradientUnits="userSpaceOnUse">
<stop stop-color="#C3FFE8"/>
<stop offset="0.9973" stop-color="#F0FFF4"/>
</linearGradient>
<clipPath id="clip0">
<rect width="92.0354" height="92.0354" fill="white" transform="translate(24 33)"/>
</clipPath>
</defs>
</svg>
