<svg width="24" height="24" viewBox="0 0 24 24" fill="none" xmlns="http://www.w3.org/2000/svg">
<path d="M10.2314 6.035C10.2314 4 10.3734 4 12.0004 4C13.6274 4 13.7684 4 13.7684 6.035" stroke="white" stroke-width="2" stroke-linecap="round" stroke-linejoin="round"/>
<path d="M10.2314 17.9648C10.2314 19.9998 10.3734 19.9998 12.0004 19.9998C13.6274 19.9998 13.7684 19.9998 13.7684 17.9648" stroke="white" stroke-width="2" stroke-linecap="round" stroke-linejoin="round"/>
<path d="M17.9648 10.2314C19.9998 10.2314 19.9998 10.3734 19.9998 12.0004C19.9998 13.6274 19.9998 13.7684 17.9648 13.7684" stroke="white" stroke-width="2" stroke-linecap="round" stroke-linejoin="round"/>
<path d="M6.03524 13.7684C4.00024 13.7684 4.00024 13.6264 4.00024 11.9994C4.00024 10.3724 4.00024 10.2314 6.03524 10.2314" stroke="white" stroke-width="2" stroke-linecap="round" stroke-linejoin="round"/>
<path d="M14.9688 6.5248C16.4088 5.0938 16.5067 5.1918 17.6537 6.3468C18.8087 7.4938 18.9067 7.5908 17.4757 9.0318" stroke="white" stroke-width="2" stroke-linecap="round" stroke-linejoin="round"/>
<path d="M6.52431 14.9688C5.09331 16.4088 5.19131 16.5067 6.34631 17.6537C7.49331 18.8087 7.59031 18.9067 9.03131 17.4757" stroke="white" stroke-width="2" stroke-linecap="round" stroke-linejoin="round"/>
<path d="M17.4755 14.9688C18.9065 16.4088 18.8085 16.5067 17.6535 17.6537C16.5065 18.8087 16.4095 18.9067 14.9685 17.4757" stroke="white" stroke-width="2" stroke-linecap="round" stroke-linejoin="round"/>
<path d="M6.52431 9.03083C5.09331 7.59083 5.19131 7.49283 6.34631 6.34583C7.49331 5.19083 7.59031 5.09283 9.03131 6.52383" stroke="white" stroke-width="2" stroke-linecap="round" stroke-linejoin="round"/>
<path d="M6.5244 9.03125C6.3204 9.41325 6.1514 9.81325 6.0354 10.2313" stroke="white" stroke-width="2" stroke-linecap="round" stroke-linejoin="round"/>
<path d="M6.5244 14.9686C6.3204 14.5866 6.1514 14.1866 6.0354 13.7686" stroke="white" stroke-width="2" stroke-linecap="round" stroke-linejoin="round"/>
<path d="M14.9688 17.4756C14.5868 17.6796 14.1868 17.8486 13.7688 17.9646" stroke="white" stroke-width="2" stroke-linecap="round" stroke-linejoin="round"/>
<path d="M17.9648 10.2312C17.8488 9.81325 17.6798 9.41325 17.4758 9.03125" stroke="white" stroke-width="2" stroke-linecap="round" stroke-linejoin="round"/>
<path d="M14.9688 6.52416C14.5868 6.32016 14.1868 6.15116 13.7688 6.03516" stroke="white" stroke-width="2" stroke-linecap="round" stroke-linejoin="round"/>
<path d="M17.9648 13.7686C17.8488 14.1866 17.6798 14.5866 17.4758 14.9686" stroke="white" stroke-width="2" stroke-linecap="round" stroke-linejoin="round"/>
<path d="M10.2315 17.9646C9.81349 17.8486 9.41349 17.6796 9.03149 17.4756" stroke="white" stroke-width="2" stroke-linecap="round" stroke-linejoin="round"/>
<path d="M10.2315 6.03516C9.81349 6.15116 9.41349 6.32016 9.03149 6.52416" stroke="white" stroke-width="2" stroke-linecap="round" stroke-linejoin="round"/>
<path fill-rule="evenodd" clip-rule="evenodd" d="M15 12C15 13.657 13.657 15 12 15C10.343 15 9 13.657 9 12C9 10.343 10.343 9 12 9C13.657 9 15 10.343 15 12Z" stroke="white" stroke-width="2" stroke-linecap="round" stroke-linejoin="round"/>
</svg>
