<svg width="24" height="24" viewBox="0 0 24 24" fill="none" xmlns="http://www.w3.org/2000/svg">
<path fill-rule="evenodd" clip-rule="evenodd" d="M13.0463 4.66776L14.7483 8.43976C14.9033 8.78376 15.2373 9.01076 15.6143 9.02776L19.0193 9.18476C19.9483 9.32676 20.3283 10.4668 19.6713 11.1438L17.0013 13.9998L17.3283 18.6488C17.4833 19.6058 16.4743 20.3208 15.6293 19.8528L12.4863 18.1058C12.1843 17.9378 11.8173 17.9378 11.5153 18.1058L8.37232 19.8528C7.52732 20.3208 6.51832 19.6058 6.67332 18.6488L6.97032 14.4348C6.98932 14.1568 6.89332 13.8848 6.70332 13.6818L4.33032 11.1438C3.67332 10.4668 4.05332 9.32676 4.98332 9.18476L8.38732 9.02776C8.76432 9.01076 9.09832 8.78376 9.25332 8.43976L10.9553 4.66776C11.3713 3.77676 12.6303 3.77676 13.0463 4.66776Z" fill="#FED47E"/>
</svg>
