<svg width="16" height="16" viewBox="0 0 16 16" fill="none" xmlns="http://www.w3.org/2000/svg">
<path fill-rule="evenodd" clip-rule="evenodd" d="M8.69714 3.112L9.8318 5.62667C9.93514 5.856 10.1578 6.00734 10.4091 6.01867L12.6791 6.12334C13.2985 6.218 13.5518 6.978 13.1138 7.42934L11.3338 9.33334L11.5518 12.4327C11.6551 13.0707 10.9825 13.5473 10.4191 13.2353L8.3238 12.0707C8.12247 11.9587 7.8778 11.9587 7.67647 12.0707L5.58114 13.2353C5.0178 13.5473 4.34514 13.0707 4.44847 12.4327L4.64647 9.62334C4.65914 9.438 4.59513 9.25667 4.46847 9.12134L2.88647 7.42934C2.44847 6.978 2.7018 6.218 3.3218 6.12334L5.59114 6.01867C5.84247 6.00734 6.06514 5.856 6.16847 5.62667L7.30314 3.112C7.58047 2.518 8.4198 2.518 8.69714 3.112Z" stroke="#FED47E" stroke-width="1.5" stroke-linecap="round" stroke-linejoin="round"/>
</svg>
