<svg width="178" height="178" viewBox="0 0 178 178" fill="none" xmlns="http://www.w3.org/2000/svg">
<g opacity="0.3">
<circle cx="89" cy="89" r="84" stroke="#D6D8DD" stroke-width="10"/>
<path d="M72.2939 104.738C80.0254 104.738 84.8037 98.791 84.8037 89.1318C84.8037 79.4111 79.9639 73.6484 72.2939 73.6484C64.6035 73.6484 59.7432 79.4316 59.7432 89.1523C59.7432 98.832 64.542 104.738 72.2939 104.738ZM72.2939 98.873C69.3408 98.873 67.3926 95.5303 67.3926 89.1318C67.3926 82.7744 69.3613 79.5137 72.2939 79.5137C75.2266 79.5137 77.1543 82.7539 77.1543 89.1523C77.1543 95.5508 75.2266 98.873 72.2939 98.873ZM120.016 96.6377C120.016 91.8389 117.35 88.8857 112.981 88.8857C108.634 88.8857 105.947 91.8594 105.947 96.6377C105.947 101.457 108.675 104.492 112.981 104.492C117.309 104.492 120.016 101.457 120.016 96.6377ZM112.981 100.329C111.895 100.329 111.238 98.9141 111.238 96.6582C111.238 94.3818 111.874 93.0693 112.981 93.0693C114.109 93.0693 114.745 94.3613 114.745 96.6377C114.745 98.9346 114.089 100.329 112.981 100.329ZM101.354 81.0928C101.354 76.2939 98.6875 73.3408 94.3193 73.3408C89.9717 73.3408 87.2852 76.3145 87.2852 81.0928C87.2852 85.9121 90.0127 88.9473 94.3193 88.9473C98.6465 88.9473 101.354 85.9121 101.354 81.0928ZM94.3193 84.7842C93.2324 84.7842 92.5762 83.3691 92.5762 81.1133C92.5762 78.8369 93.2119 77.5244 94.3193 77.5244C95.4473 77.5244 96.083 78.8164 96.083 81.0928C96.083 83.3896 95.4268 84.7842 94.3193 84.7842ZM95.7139 104L117.268 74.4072H111.115L89.541 104H95.7139Z" fill="#D6D8DD"/>
</g>
</svg>
